<svg width="24" height="24" viewBox="0 0 24 24" fill="none" xmlns="http://www.w3.org/2000/svg">
<path fill-rule="evenodd" clip-rule="evenodd" d="M10.4795 2.39406C10.9381 2.12688 11.4592 1.98611 11.9899 1.98611C12.5206 1.98611 13.0418 2.12688 13.5003 2.39406C13.9583 2.6609 14.3373 3.0443 14.5989 3.50521C14.5993 3.50579 14.5996 3.50638 14.5999 3.50696L22.596 17.5C22.5963 17.5006 22.5966 17.5011 22.5969 17.5017C22.8595 17.9571 22.9977 18.4735 22.9979 18.9992C22.998 19.5256 22.8597 20.0427 22.5967 20.4987C22.3338 20.9546 21.9555 21.3334 21.4999 21.5969C21.0442 21.8605 20.5273 21.9995 20.001 22H4.00403C3.47682 22.0039 2.95787 21.8688 2.49947 21.6082C2.03965 21.3469 1.6571 20.9686 1.3906 20.5117C1.12409 20.0548 0.983112 19.5356 0.981941 19.0067C0.980772 18.4786 1.11902 17.9596 1.38269 17.5021C1.3831 17.5014 1.38351 17.5007 1.38393 17.5L9.37993 3.50696C9.38026 3.50638 9.38059 3.50579 9.38092 3.50521C9.64254 3.04429 10.0216 2.6609 10.4795 2.39406ZM11.9899 3.98611C11.813 3.98611 11.6393 4.03304 11.4865 4.1221C11.3336 4.21116 11.2071 4.33917 11.1199 4.49306L11.1182 4.49615L3.11594 18.5001C3.02778 18.6527 2.98155 18.826 2.98194 19.0023C2.98233 19.1786 3.02932 19.3517 3.11815 19.504C3.20699 19.6562 3.3345 19.7823 3.48778 19.8695C3.64105 19.9566 3.81464 20.0016 3.99093 20.0001L3.99993 20L19.9989 20C20.1744 19.9998 20.3467 19.9535 20.4985 19.8657C20.6504 19.7778 20.7765 19.6516 20.8642 19.4996C20.9518 19.3476 20.9979 19.1752 20.9979 18.9998C20.9978 18.8243 20.9516 18.652 20.8639 18.5L20.8617 18.4962L12.8617 4.49615L12.8599 4.49306C12.7727 4.33916 12.6462 4.21116 12.4934 4.1221C12.3406 4.03304 12.1668 3.98611 11.9899 3.98611Z" fill="currentColor"/>
<path fill-rule="evenodd" clip-rule="evenodd" d="M12 8C12.5523 8 13 8.44772 13 9V13C13 13.5523 12.5523 14 12 14C11.4477 14 11 13.5523 11 13V9C11 8.44772 11.4477 8 12 8Z" fill="currentColor"/>
<path fill-rule="evenodd" clip-rule="evenodd" d="M11 17C11 16.4477 11.4477 16 12 16H12.01C12.5623 16 13.01 16.4477 13.01 17C13.01 17.5523 12.5623 18 12.01 18H12C11.4477 18 11 17.5523 11 17Z" fill="currentColor"/>
</svg>
