<svg width="24" height="24" viewBox="0 0 24 24" fill="none" xmlns="http://www.w3.org/2000/svg">
<path fill-rule="evenodd" clip-rule="evenodd" d="M5 4C4.44772 4 4 4.44772 4 5V19C4 19.5523 4.44772 20 5 20H19C19.5523 20 20 19.5523 20 19V5C20 4.44772 19.5523 4 19 4H5ZM2 5C2 3.34315 3.34315 2 5 2H19C20.6569 2 22 3.34315 22 5V19C22 20.6569 20.6569 22 19 22H5C3.34315 22 2 20.6569 2 19V5Z" fill="currentColor"/>
<path fill-rule="evenodd" clip-rule="evenodd" d="M7.29289 9.29289C7.68342 8.90237 8.31658 8.90237 8.70711 9.29289L12 12.5858L15.2929 9.29289C15.6834 8.90237 16.3166 8.90237 16.7071 9.29289C17.0976 9.68342 17.0976 10.3166 16.7071 10.7071L12.7071 14.7071C12.3166 15.0976 11.6834 15.0976 11.2929 14.7071L7.29289 10.7071C6.90237 10.3166 6.90237 9.68342 7.29289 9.29289Z" fill="currentColor"/>
</svg>
