<svg width="24" height="24" viewBox="0 0 24 24" fill="none" xmlns="http://www.w3.org/2000/svg">
<path fill-rule="evenodd" clip-rule="evenodd" d="M3.81824 11.596C3.59512 11.8191 3.59512 12.1809 3.81824 12.404L11.596 20.1818C11.8191 20.4049 12.1809 20.4049 12.404 20.1818L20.1818 12.404C20.4049 12.1809 20.4049 11.8191 20.1818 11.596L12.404 3.81823C12.1809 3.59511 11.8191 3.59511 11.596 3.81823L3.81824 11.596ZM2.40403 13.8182C1.39986 12.814 1.39986 11.186 2.40403 10.1818L10.1818 2.40402C11.186 1.39985 12.8141 1.39985 13.8182 2.40402L21.596 10.1818C22.6002 11.186 22.6002 12.814 21.596 13.8182L13.8182 21.596C12.8141 22.6002 11.186 22.6002 10.1818 21.596L2.40403 13.8182Z" fill="currentColor"/>
</svg>
