<svg width="24" height="24" viewBox="0 0 24 24" fill="none" xmlns="http://www.w3.org/2000/svg">
<path fill-rule="evenodd" clip-rule="evenodd" d="M3.43736 12.5823C3.30209 12.355 3.1938 12.1573 3.11178 12C3.1938 11.8427 3.30209 11.645 3.43736 11.4177C3.80136 10.8062 4.35438 9.99176 5.10774 9.18045C6.61505 7.55719 8.86809 6 11.9999 6C15.1318 6 17.3848 7.55719 18.8921 9.18045C19.6455 9.99176 20.1985 10.8062 20.5625 11.4177C20.6978 11.645 20.8061 11.8427 20.8881 12C20.8061 12.1573 20.6978 12.355 20.5625 12.5823C20.1985 13.1938 19.6455 14.0082 18.8921 14.8195C17.3848 16.4428 15.1318 18 11.9999 18C8.86809 18 6.61505 16.4428 5.10774 14.8195C4.35438 14.0082 3.80136 13.1938 3.43736 12.5823ZM21.9999 12C22.9191 11.6061 22.9189 11.6057 22.9187 11.6052L21.9999 12ZM22.9187 12.3948C23.0265 12.1432 23.0265 11.8568 22.9187 11.6052L22.9172 11.6018L22.9142 11.5949L22.9048 11.5736C22.8971 11.5561 22.8863 11.5321 22.8724 11.5021C22.8446 11.4419 22.8045 11.3574 22.7518 11.252C22.6464 11.0413 22.4903 10.7462 22.2811 10.3948C21.8639 9.69378 21.2294 8.75824 20.3577 7.81955C18.615 5.9428 15.8681 4 11.9999 4C8.1318 4 5.38484 5.9428 3.64215 7.81955C2.77051 8.75824 2.13603 9.69378 1.71877 10.3948C1.50959 10.7462 1.35344 11.0413 1.24809 11.252C1.19538 11.3574 1.15528 11.4419 1.12751 11.5021C1.11362 11.5321 1.10281 11.5561 1.09504 11.5736L1.08565 11.5949L1.08266 11.6018L1.08159 11.6042L1.08116 11.6052C0.973351 11.8568 0.972991 12.1424 1.0808 12.3939L1.08159 12.3958L1.08266 12.3982L1.08565 12.4051L1.09504 12.4264C1.10281 12.4439 1.11362 12.4679 1.12751 12.4979C1.15528 12.5581 1.19538 12.6426 1.24809 12.748C1.35344 12.9587 1.50959 13.2538 1.71877 13.6052C2.13603 14.3062 2.77051 15.2418 3.64215 16.1805C5.38484 18.0572 8.1318 20 11.9999 20C15.8681 20 18.615 18.0572 20.3577 16.1805C21.2294 15.2418 21.8639 14.3062 22.2811 13.6052C22.4903 13.2538 22.6464 12.9587 22.7518 12.748C22.8045 12.6426 22.8446 12.5581 22.8724 12.4979C22.8863 12.4679 22.8971 12.4439 22.9048 12.4264L22.9142 12.4051L22.9172 12.3982L22.9187 12.3948ZM22.9187 12.3948C22.9189 12.3943 22.9191 12.3939 21.9999 12L22.9187 12.3948ZM1.99994 12L1.08116 11.6052C1.08097 11.6057 1.0808 11.6061 1.99994 12ZM1.9986 12.0006L1.0808 12.3939L1.08079 12.3939C1.08067 12.3935 1.08772 12.391 1.9986 12.0006ZM10 12C10 10.8954 10.8954 10 12 10C13.1046 10 14 10.8954 14 12C14 13.1046 13.1046 14 12 14C10.8954 14 10 13.1046 10 12ZM12 8C9.79086 8 8 9.79086 8 12C8 14.2091 9.79086 16 12 16C14.2091 16 16 14.2091 16 12C16 9.79086 14.2091 8 12 8Z" fill="currentColor"/>
</svg>
