<svg width="24" height="24" viewBox="0 0 24 24" fill="none" xmlns="http://www.w3.org/2000/svg">
<path fill-rule="evenodd" clip-rule="evenodd" d="M10.6116 9.19829C10.9881 9.60234 10.9658 10.2351 10.5617 10.6116C10.3652 10.7947 10.2076 11.0155 10.0983 11.2609C9.989 11.5062 9.93022 11.771 9.92548 12.0396C9.92074 12.3081 9.97014 12.5748 10.0707 12.8239C10.1713 13.0729 10.321 13.2991 10.511 13.4891C10.7009 13.679 10.9271 13.8287 11.1761 13.9293C11.4252 14.0299 11.6919 14.0793 11.9605 14.0745C12.229 14.0698 12.4938 14.011 12.7392 13.9017C12.9845 13.7924 13.2053 13.6348 13.3884 13.4383C13.7649 13.0342 14.3977 13.0119 14.8017 13.3884C15.2058 13.7649 15.2281 14.3977 14.8516 14.8017C14.4854 15.1947 14.0438 15.5099 13.5532 15.7286C13.0625 15.9472 12.5328 16.0647 11.9957 16.0742C11.4587 16.0837 10.9252 15.9849 10.4271 15.7837C9.92903 15.5825 9.47658 15.2831 9.09674 14.9033C8.71691 14.5234 8.41747 14.071 8.21629 13.5729C8.01512 13.0748 7.91632 12.5414 7.92579 12.0043C7.93527 11.4672 8.05283 10.9375 8.27145 10.4469C8.49007 9.9562 8.80529 9.5146 9.19828 9.1484C9.60234 8.77189 10.2351 8.79423 10.6116 9.19829Z" fill="currentColor"/>
<path fill-rule="evenodd" clip-rule="evenodd" d="M11.9981 4L12 4C15.8681 4 18.6151 5.94281 20.3578 7.81955C21.2294 8.75824 21.8639 9.69378 22.2811 10.3948C22.4903 10.7462 22.6465 11.0413 22.7518 11.252C22.8045 11.3574 22.8446 11.4419 22.8724 11.5021C22.8863 11.5321 22.8971 11.5561 22.9049 11.5736L22.9143 11.5949L22.9172 11.6018L22.9187 11.6052C22.9189 11.6057 22.9191 11.6061 22 12L22.9187 11.6052C23.031 11.8671 23.0265 12.1651 22.906 12.4232C22.4249 13.4531 21.8216 14.4213 21.1091 15.3069C20.7629 15.7372 20.1334 15.8053 19.7031 15.4591C19.2728 15.1129 19.2046 14.4834 19.5508 14.0531C20.0646 13.4146 20.5122 12.726 20.8871 11.9981C20.8052 11.8412 20.6973 11.6441 20.5625 11.4177C20.1985 10.8062 19.6455 9.99176 18.8922 9.18045C17.385 7.55736 15.1323 6.00031 12.0009 6C11.6174 6.00076 11.2342 6.02491 10.8536 6.07233C10.3055 6.14061 9.80592 5.75168 9.73764 5.20363C9.66935 4.65559 10.0583 4.15595 10.6063 4.08767C11.068 4.03015 11.5328 4.00087 11.9981 4Z" fill="currentColor"/>
<path fill-rule="evenodd" clip-rule="evenodd" d="M1.29289 1.29289C1.68342 0.902369 2.31658 0.902369 2.70711 1.29289L22.7071 21.2929C23.0976 21.6834 23.0976 22.3166 22.7071 22.7071C22.3166 23.0976 21.6834 23.0976 21.2929 22.7071L1.29289 2.70711C0.902369 2.31658 0.902369 1.68342 1.29289 1.29289Z" fill="currentColor"/>
<path fill-rule="evenodd" clip-rule="evenodd" d="M3.11178 12C3.1938 12.1573 3.30209 12.355 3.43736 12.5823C3.80136 13.1938 4.35438 14.0082 5.10774 14.8195C6.61504 16.4428 8.86809 18 11.9999 18C15.1318 18 17.3848 16.4428 18.8921 14.8195C19.6455 14.0082 20.1985 13.1938 20.5625 12.5823C20.6978 12.355 20.8061 12.1573 20.8881 12C20.8061 11.8427 20.6978 11.645 20.5625 11.4177C20.1985 10.8062 19.6455 9.99176 18.8921 9.18045C17.3848 7.55719 15.1318 6 11.9999 6C8.86809 6 6.61504 7.55719 5.10774 9.18045C4.35438 9.99176 3.80136 10.8062 3.43736 11.4177C3.30209 11.645 3.1938 11.8427 3.11178 12ZM21.9999 12C22.9191 11.6061 22.9189 11.6057 22.9187 11.6052L22.9172 11.6018L22.9142 11.5949L22.9048 11.5736C22.8971 11.5561 22.8863 11.5321 22.8724 11.5021C22.8446 11.4419 22.8045 11.3574 22.7518 11.252C22.6464 11.0413 22.4903 10.7462 22.2811 10.3948C21.8639 9.69378 21.2294 8.75824 20.3577 7.81955C18.615 5.9428 15.8681 4 11.9999 4C8.1318 4 5.38484 5.9428 3.64215 7.81955C2.77051 8.75824 2.13603 9.69378 1.71877 10.3948C1.50959 10.7462 1.35344 11.0413 1.24809 11.252C1.19538 11.3574 1.15528 11.4419 1.12751 11.5021C1.11362 11.5321 1.10281 11.5561 1.09504 11.5736L1.08565 11.5949L1.08266 11.6018L1.08159 11.6042L1.08116 11.6052C1.08097 11.6057 1.0808 11.6061 1.99994 12L1.08116 11.6052C0.973351 11.8568 0.972991 12.1424 1.0808 12.3939L1.99994 12C1.0808 12.3939 1.08061 12.3935 1.0808 12.3939L1.08159 12.3958L1.08266 12.3982L1.08565 12.4051L1.09504 12.4264C1.10281 12.4439 1.11362 12.4679 1.12751 12.4979C1.15528 12.5581 1.19538 12.6426 1.24809 12.748C1.35344 12.9587 1.50959 13.2538 1.71877 13.6052C2.13603 14.3062 2.77051 15.2418 3.64215 16.1805C5.38484 18.0572 8.1318 20 11.9999 20C15.8681 20 18.615 18.0572 20.3577 16.1805C21.2294 15.2418 21.8639 14.3062 22.2811 13.6052C22.4903 13.2538 22.6464 12.9587 22.7518 12.748C22.8045 12.6426 22.8446 12.5581 22.8724 12.4979C22.8863 12.4679 22.8971 12.4439 22.9048 12.4264L22.9142 12.4051L22.9172 12.3982L22.9187 12.3948C22.9189 12.3943 22.9191 12.3939 21.9999 12ZM21.9999 12L22.9187 12.3948C23.0265 12.1432 23.0265 11.8568 22.9187 11.6052L21.9999 12Z" fill="currentColor"/>
</svg>
