<svg width="32" height="33" viewBox="0 0 32 33" fill="none" xmlns="http://www.w3.org/2000/svg">
<path fill-rule="evenodd" clip-rule="evenodd" d="M14.3431 4.21961C15.8434 2.71932 17.8783 1.87646 20 1.87646H24C24.7364 1.87646 25.3333 2.47342 25.3333 3.2098V8.54313C25.3333 9.27951 24.7364 9.87646 24 9.87646H20V12.5431H24C24.4106 12.5431 24.7983 12.7323 25.0509 13.0559C25.3036 13.3795 25.3931 13.8015 25.2935 14.1998L23.9602 19.5332C23.8118 20.1267 23.2785 20.5431 22.6667 20.5431H20V29.8765C20 30.6128 19.403 31.2098 18.6667 31.2098H13.3333C12.597 31.2098 12 30.6128 12 29.8765V20.5431H9.33333C8.59695 20.5431 8 19.9462 8 19.2098V13.8765C8 13.1401 8.59695 12.5431 9.33333 12.5431H12V9.87646C12 7.75473 12.8429 5.7199 14.3431 4.21961ZM20 4.54313C18.5855 4.54313 17.229 5.10503 16.2288 6.10523C15.2286 7.10542 14.6667 8.46198 14.6667 9.87646V13.8765C14.6667 14.6128 14.0697 15.2098 13.3333 15.2098H10.6667V17.8765H13.3333C14.0697 17.8765 14.6667 18.4734 14.6667 19.2098V28.5431H17.3333V19.2098C17.3333 18.4734 17.9303 17.8765 18.6667 17.8765H21.6256L22.2923 15.2098H18.6667C17.9303 15.2098 17.3333 14.6128 17.3333 13.8765V9.87646C17.3333 9.16922 17.6143 8.49094 18.1144 7.99085C18.6145 7.49075 19.2928 7.2098 20 7.2098H22.6667V4.54313H20Z" fill="currentColor"/>
</svg>
