<svg width="32" height="33" viewBox="0 0 32 33" fill="none" xmlns="http://www.w3.org/2000/svg">
<path d="M15.9993 3.26318C8.66602 3.26318 2.66602 9.24985 2.66602 16.6232C2.66602 23.2899 7.54601 28.8232 13.9193 29.8232V20.4899H10.5327V16.6232H13.9193V13.6765C13.9193 10.3299 15.906 8.48985 18.9594 8.48985C20.4127 8.48985 21.9327 8.74318 21.9327 8.74318V12.0365H20.2527C18.5993 12.0365 18.0793 13.0632 18.0793 14.1165V16.6232H21.786L21.186 20.4899H18.0793V29.8232C21.2213 29.327 24.0823 27.7239 26.1459 25.3033C28.2095 22.8827 29.3398 19.804 29.3327 16.6232C29.3327 9.24985 23.3327 3.26318 15.9993 3.26318Z" fill="currentColor"/>
</svg>
