<svg width="24" height="24" viewBox="0 0 24 24" fill="none" xmlns="http://www.w3.org/2000/svg">
<path fill-rule="evenodd" clip-rule="evenodd" d="M3.87868 1.87868C4.44129 1.31607 5.20435 1 6 1H14H14.5C14.7652 1 15.0196 1.10536 15.2071 1.29289L20.7071 6.79289C20.8946 6.98043 21 7.23478 21 7.5V8V20C21 20.7957 20.6839 21.5587 20.1213 22.1213C19.5587 22.6839 18.7957 23 18 23H6C5.20435 23 4.44129 22.6839 3.87868 22.1213C3.31607 21.5587 3 20.7957 3 20V4C3 3.20435 3.31607 2.44129 3.87868 1.87868ZM6 3H13V8C13 8.55228 13.4477 9 14 9H19V20C19 20.2652 18.8946 20.5196 18.7071 20.7071C18.5196 20.8946 18.2652 21 18 21H6C5.73478 21 5.48043 20.8946 5.29289 20.7071C5.10536 20.5196 5 20.2652 5 20V4C5 3.73478 5.10536 3.48043 5.29289 3.29289C5.48043 3.10536 5.73478 3 6 3ZM15 7H18.0858L15 3.91421V7ZM8 12C7.44772 12 7 12.4477 7 13C7 13.5523 7.44772 14 8 14H16C16.5523 14 17 13.5523 17 13C17 12.4477 16.5523 12 16 12H8ZM7 17C7 16.4477 7.44772 16 8 16H16C16.5523 16 17 16.4477 17 17C17 17.5523 16.5523 18 16 18H8C7.44772 18 7 17.5523 7 17ZM8 8C7.44772 8 7 8.44772 7 9C7 9.55229 7.44772 10 8 10H10C10.5523 10 11 9.55229 11 9C11 8.44772 10.5523 8 10 8H8Z" fill="currentColor"/>
</svg>
