<svg width="24" height="24" viewBox="0 0 24 24" fill="none" xmlns="http://www.w3.org/2000/svg">
<path fill-rule="evenodd" clip-rule="evenodd" d="M2.90381 3.90381C4.12279 2.68482 5.77609 2 7.5 2C8.48018 2 9.37318 2.14018 10.2468 2.52068C10.8597 2.78762 11.4321 3.15937 12 3.63935C12.5679 3.15937 13.1403 2.78762 13.7532 2.52068C14.6268 2.14018 15.5198 2 16.5 2C18.2239 2 19.8772 2.68482 21.0962 3.90381C22.3152 5.12279 23 6.77609 23 8.5C23 11.2418 21.1906 13.2531 19.7035 14.7107L12.7071 21.7071C12.3166 22.0976 11.6834 22.0976 11.2929 21.7071L4.29885 14.7131C2.79442 13.258 1 11.2494 1 8.5C1 6.77609 1.68482 5.12279 2.90381 3.90381ZM7.5 4C6.30653 4 5.16193 4.47411 4.31802 5.31802C3.47411 6.16193 3 7.30653 3 8.5C3 10.3469 4.2007 11.8365 5.69502 13.281L5.70711 13.2929L12 19.5858L18.3001 13.2857C19.7923 11.8235 21 10.3359 21 8.5C21 7.30653 20.5259 6.16193 19.682 5.31802C18.8381 4.47411 17.6935 4 16.5 4C15.7202 4 15.1132 4.10982 14.5518 4.35432C13.984 4.60163 13.4001 5.0141 12.7071 5.70711C12.3166 6.09763 11.6834 6.09763 11.2929 5.70711C10.5999 5.0141 10.016 4.60163 9.44819 4.35432C8.88682 4.10982 8.27982 4 7.5 4Z" fill="currentColor"/>
</svg>
