<svg width="32" height="33" viewBox="0 0 32 33" fill="none" xmlns="http://www.w3.org/2000/svg">
<path d="M10.3993 3.20947H21.5993C25.866 3.20947 29.3327 6.67614 29.3327 10.9428V22.1428C29.3327 24.1938 28.5179 26.1608 27.0676 27.6111C25.6174 29.0614 23.6504 29.8761 21.5993 29.8761H10.3993C6.13268 29.8761 2.66602 26.4095 2.66602 22.1428V10.9428C2.66602 8.8918 3.48078 6.9248 4.93106 5.47451C6.38134 4.02423 8.34834 3.20947 10.3993 3.20947ZM10.1327 5.87614C8.85964 5.87614 7.63874 6.38185 6.73857 7.28203C5.8384 8.1822 5.33268 9.4031 5.33268 10.6761V22.4095C5.33268 25.0628 7.47935 27.2095 10.1327 27.2095H21.866C23.1391 27.2095 24.36 26.7038 25.2601 25.8036C26.1603 24.9034 26.666 23.6825 26.666 22.4095V10.6761C26.666 8.02281 24.5194 5.87614 21.866 5.87614H10.1327ZM22.9993 7.87614C23.4414 7.87614 23.8653 8.05173 24.1779 8.3643C24.4904 8.67686 24.666 9.10078 24.666 9.54281C24.666 9.98483 24.4904 10.4088 24.1779 10.7213C23.8653 11.0339 23.4414 11.2095 22.9993 11.2095C22.5573 11.2095 22.1334 11.0339 21.8208 10.7213C21.5083 10.4088 21.3327 9.98483 21.3327 9.54281C21.3327 9.10078 21.5083 8.67686 21.8208 8.3643C22.1334 8.05173 22.5573 7.87614 22.9993 7.87614ZM15.9993 9.87614C17.7675 9.87614 19.4632 10.5785 20.7134 11.8288C21.9636 13.079 22.666 14.7747 22.666 16.5428C22.666 18.3109 21.9636 20.0066 20.7134 21.2569C19.4632 22.5071 17.7675 23.2095 15.9993 23.2095C14.2312 23.2095 12.5355 22.5071 11.2853 21.2569C10.0351 20.0066 9.33268 18.3109 9.33268 16.5428C9.33268 14.7747 10.0351 13.079 11.2853 11.8288C12.5355 10.5785 14.2312 9.87614 15.9993 9.87614ZM15.9993 12.5428C14.9385 12.5428 13.9211 12.9642 13.1709 13.7144C12.4208 14.4645 11.9993 15.4819 11.9993 16.5428C11.9993 17.6037 12.4208 18.6211 13.1709 19.3712C13.9211 20.1214 14.9385 20.5428 15.9993 20.5428C17.0602 20.5428 18.0776 20.1214 18.8278 19.3712C19.5779 18.6211 19.9993 17.6037 19.9993 16.5428C19.9993 15.4819 19.5779 14.4645 18.8278 13.7144C18.0776 12.9642 17.0602 12.5428 15.9993 12.5428Z" fill="currentColor"/>
</svg>
