<svg width="24" height="24" viewBox="0 0 24 24" fill="none" xmlns="http://www.w3.org/2000/svg">
<path fill-rule="evenodd" clip-rule="evenodd" d="M7 8C5.93913 8 4.92172 8.42143 4.17157 9.17157C3.42143 9.92172 3 10.9391 3 12C3 13.0609 3.42143 14.0783 4.17157 14.8284C4.92172 15.5786 5.93913 16 7 16H9C9.55228 16 10 16.4477 10 17C10 17.5523 9.55228 18 9 18H7C5.4087 18 3.88258 17.3679 2.75736 16.2426C1.63214 15.1174 1 13.5913 1 12C1 10.4087 1.63214 8.88258 2.75736 7.75736C3.88258 6.63214 5.4087 6 7 6H9C9.55228 6 10 6.44772 10 7C10 7.55228 9.55228 8 9 8H7ZM14 7C14 6.44772 14.4477 6 15 6H17C18.5913 6 20.1174 6.63214 21.2426 7.75736C22.3679 8.88258 23 10.4087 23 12C23 13.5913 22.3679 15.1174 21.2426 16.2426C20.1174 17.3679 18.5913 18 17 18H15C14.4477 18 14 17.5523 14 17C14 16.4477 14.4477 16 15 16H17C18.0609 16 19.0783 15.5786 19.8284 14.8284C20.5786 14.0783 21 13.0609 21 12C21 10.9391 20.5786 9.92172 19.8284 9.17157C19.0783 8.42143 18.0609 8 17 8H15C14.4477 8 14 7.55228 14 7ZM8 11C7.44772 11 7 11.4477 7 12C7 12.5523 7.44772 13 8 13H16C16.5523 13 17 12.5523 17 12C17 11.4477 16.5523 11 16 11H8Z" fill="currentColor"/>
</svg>
