<svg width="32" height="33" viewBox="0 0 32 33" fill="none" xmlns="http://www.w3.org/2000/svg">
<path d="M25.3333 4.54297C26.0406 4.54297 26.7189 4.82392 27.219 5.32402C27.719 5.82411 28 6.50239 28 7.20964V25.8763C28 26.5835 27.719 27.2618 27.219 27.7619C26.7189 28.262 26.0406 28.543 25.3333 28.543H6.66667C5.95942 28.543 5.28115 28.262 4.78105 27.7619C4.28095 27.2618 4 26.5835 4 25.8763V7.20964C4 6.50239 4.28095 5.82411 4.78105 5.32402C5.28115 4.82392 5.95942 4.54297 6.66667 4.54297H25.3333ZM24.6667 25.2096V18.143C24.6667 16.9902 24.2087 15.8846 23.3936 15.0694C22.5784 14.2543 21.4728 13.7963 20.32 13.7963C19.1867 13.7963 17.8667 14.4896 17.2267 15.5296V14.0496H13.5067V25.2096H17.2267V18.6363C17.2267 17.6096 18.0533 16.7696 19.08 16.7696C19.5751 16.7696 20.0499 16.9663 20.3999 17.3164C20.75 17.6664 20.9467 18.1412 20.9467 18.6363V25.2096H24.6667ZM9.17333 11.9563C9.76742 11.9563 10.3372 11.7203 10.7573 11.3002C11.1773 10.8801 11.4133 10.3104 11.4133 9.7163C11.4133 8.4763 10.4133 7.46297 9.17333 7.46297C8.57571 7.46297 8.00257 7.70037 7.57999 8.12295C7.1574 8.54554 6.92 9.11868 6.92 9.7163C6.92 10.9563 7.93333 11.9563 9.17333 11.9563ZM11.0267 25.2096V14.0496H7.33333V25.2096H11.0267Z" fill="currentColor"/>
</svg>
