<svg width="24" height="24" viewBox="0 0 24 24" fill="none" xmlns="http://www.w3.org/2000/svg">
<path fill-rule="evenodd" clip-rule="evenodd" d="M12 3C10.1435 3 8.36301 3.7375 7.05025 5.05025C5.7375 6.36301 5 8.14348 5 10C5 12.605 6.77047 15.3616 8.74741 17.5856C9.71242 18.6713 10.6805 19.5792 11.4085 20.2162C11.6312 20.411 11.8307 20.5799 12 20.7202C12.1693 20.5799 12.3688 20.411 12.5915 20.2162C13.3195 19.5792 14.2876 18.6713 15.2526 17.5856C17.2295 15.3616 19 12.605 19 10C19 8.14348 18.2625 6.36301 16.9497 5.05025C15.637 3.7375 13.8565 3 12 3ZM12 22C11.4 22.8 11.3998 22.7998 11.3995 22.7997L11.3989 22.7992L11.397 22.7978L11.3912 22.7933L11.3709 22.778C11.3537 22.7648 11.3291 22.746 11.2976 22.7216C11.2346 22.6728 11.1441 22.6017 11.0299 22.51C10.8016 22.3265 10.4782 22.0597 10.0915 21.7213C9.31946 21.0458 8.28758 20.0787 7.25259 18.9144C5.22953 16.6384 3 13.395 3 10C3 7.61305 3.94821 5.32387 5.63604 3.63604C7.32387 1.94821 9.61305 1 12 1C14.3869 1 16.6761 1.94821 18.364 3.63604C20.0518 5.32387 21 7.61305 21 10C21 13.395 18.7705 16.6384 16.7474 18.9144C15.7124 20.0787 14.6805 21.0458 13.9085 21.7213C13.5218 22.0597 13.1984 22.3265 12.9701 22.51C12.8559 22.6017 12.7654 22.6728 12.7024 22.7216C12.6709 22.746 12.6463 22.7648 12.6291 22.778L12.6088 22.7933L12.603 22.7978L12.6011 22.7992L12.6005 22.7997C12.6002 22.7998 12.6 22.8 12 22ZM12 22L12.6 22.8C12.2444 23.0667 11.7556 23.0667 11.4 22.8L12 22Z" fill="currentColor"/>
<path fill-rule="evenodd" clip-rule="evenodd" d="M12 8C10.8954 8 10 8.89543 10 10C10 11.1046 10.8954 12 12 12C13.1046 12 14 11.1046 14 10C14 8.89543 13.1046 8 12 8ZM8 10C8 7.79086 9.79086 6 12 6C14.2091 6 16 7.79086 16 10C16 12.2091 14.2091 14 12 14C9.79086 14 8 12.2091 8 10Z" fill="currentColor"/>
</svg>
