<svg width="24" height="24" viewBox="0 0 24 24" fill="none" xmlns="http://www.w3.org/2000/svg">
<path fill-rule="evenodd" clip-rule="evenodd" d="M4 3C3.45228 3 3 3.45228 3 4V12.5858L5.29289 10.2929C5.48043 10.1054 5.73478 10 6 10H12C12.2652 10 12.5196 9.89464 12.7071 9.70711C12.8946 9.51957 13 9.26522 13 9V4C13 3.73478 12.8946 3.48043 12.7071 3.29289C12.5196 3.10536 12.2652 3 12 3H4ZM1 4C1 2.34772 2.34772 1 4 1H12C12.7956 1 13.5587 1.31607 14.1213 1.87868C14.6839 2.44129 15 3.20435 15 4V9C15 9.79565 14.6839 10.5587 14.1213 11.1213C13.5587 11.6839 12.7957 12 12 12H6.41421L2.70711 15.7071C2.42111 15.9931 1.99099 16.0787 1.61732 15.9239C1.24364 15.7691 1 15.4045 1 15V4Z" fill="currentColor"/>
<path fill-rule="evenodd" clip-rule="evenodd" d="M17 9C17 8.44772 17.4477 8 18 8H20C20.7957 8 21.5587 8.31607 22.1213 8.87868C22.6839 9.44129 23 10.2043 23 11V22C23 22.4045 22.7564 22.7691 22.3827 22.9239C22.009 23.0787 21.5789 22.9931 21.2929 22.7071L17.5858 19H12C11.2043 19 10.4413 18.6839 9.87868 18.1213C9.31607 17.5587 9 16.7957 9 16V15C9 14.4477 9.44772 14 10 14C10.5523 14 11 14.4477 11 15V16C11 16.2652 11.1054 16.5196 11.2929 16.7071C11.4804 16.8946 11.7348 17 12 17H18C18.2652 17 18.5196 17.1054 18.7071 17.2929L21 19.5858V11C21 10.7348 20.8946 10.4804 20.7071 10.2929C20.5196 10.1054 20.2652 10 20 10H18C17.4477 10 17 9.55228 17 9Z" fill="currentColor"/>
</svg>
