<svg width="24" height="24" viewBox="0 0 24 24" fill="none" xmlns="http://www.w3.org/2000/svg">
<path fill-rule="evenodd" clip-rule="evenodd" d="M13.1046 4.02205C11.3294 3.879 9.56127 4.37233 8.11654 5.41375C6.67182 6.45518 5.64483 7.97673 5.21938 9.70611C4.79392 11.4355 4.99775 13.2599 5.7944 14.8527C5.91306 15.0899 5.93259 15.3646 5.84871 15.6162L4.58117 19.4189L8.3838 18.1513C8.63544 18.0674 8.9101 18.087 9.14734 18.2056C10.7402 19.0023 12.5645 19.2061 14.2939 18.7807C16.0233 18.3552 17.5449 17.3282 18.5863 15.8835C19.6277 14.4388 20.121 12.6706 19.978 10.8954C19.8349 9.1202 19.0648 7.45384 17.8055 6.19452C16.5462 4.93519 14.8798 4.1651 13.1046 4.02205ZM6.94703 3.79134C8.77701 2.4722 11.0167 1.84731 13.2653 2.02851C15.5139 2.20971 17.6246 3.18516 19.2197 4.7803C20.8149 6.37544 21.7903 8.48617 21.9715 10.7348C22.1527 12.9833 21.5278 15.223 20.2087 17.053C18.8896 18.883 16.9623 20.1838 14.7717 20.7228C12.7186 21.2278 10.5599 21.0327 8.63591 20.1755L3.31625 21.9487C2.95692 22.0685 2.56075 21.9749 2.29292 21.7071C2.02509 21.4393 1.93157 21.0431 2.05134 20.6838L3.82456 15.3641C2.9673 13.4402 2.77219 11.2814 3.27729 9.22833C3.8162 7.03777 5.11704 5.11047 6.94703 3.79134Z" fill="currentColor"/>
</svg>
