<svg width="24" height="24" viewBox="0 0 24 24" fill="none" xmlns="http://www.w3.org/2000/svg">
<path fill-rule="evenodd" clip-rule="evenodd" d="M9.87357 4.28778C9.05353 4.51389 8.27036 4.87055 7.55544 5.34824C6.23985 6.22729 5.21447 7.47672 4.60897 8.93853C4.00347 10.4003 3.84504 12.0089 4.15372 13.5607C4.4624 15.1126 5.22433 16.538 6.34315 17.6569C7.46197 18.7757 8.88743 19.5376 10.4393 19.8463C11.9911 20.155 13.5997 19.9965 15.0615 19.391C16.5233 18.7855 17.7727 17.7602 18.6518 16.4446C19.1295 15.7296 19.4861 14.9465 19.7122 14.1264C18.7202 14.6073 17.6233 14.864 16.5 14.864C14.547 14.864 12.6739 14.0881 11.2929 12.7071C9.91189 11.3261 9.13604 9.45304 9.13604 7.5C9.13604 6.37666 9.39271 5.27979 9.87357 4.28778ZM6.4443 3.6853C8.08879 2.58649 10.0222 2 12 2C12.4045 2 12.7691 2.24364 12.9239 2.61732C13.0787 2.99099 12.9931 3.42111 12.7071 3.70711C11.7012 4.71304 11.136 6.07739 11.136 7.5C11.136 8.92261 11.7012 10.287 12.7071 11.2929C13.713 12.2988 15.0774 12.864 16.5 12.864C17.9226 12.864 19.287 12.2988 20.2929 11.2929C20.5789 11.0069 21.009 10.9213 21.3827 11.0761C21.7564 11.2309 22 11.5955 22 12C22 13.9778 21.4135 15.9112 20.3147 17.5557C19.2159 19.2002 17.6541 20.4819 15.8268 21.2388C13.9996 21.9957 11.9889 22.1937 10.0491 21.8079C8.10929 21.422 6.32746 20.4696 4.92894 19.0711C3.53041 17.6725 2.578 15.8907 2.19215 13.9509C1.8063 12.0111 2.00433 10.0004 2.76121 8.17317C3.51809 6.3459 4.79981 4.78412 6.4443 3.6853Z" fill="currentColor"/>
</svg>
