<svg width="24" height="24" viewBox="0 0 24 24" fill="none" xmlns="http://www.w3.org/2000/svg">
<path fill-rule="evenodd" clip-rule="evenodd" d="M12 16C12.5523 16 13 16.4477 13 17V22C13 22.5523 12.5523 23 12 23C11.4477 23 11 22.5523 11 22V17C11 16.4477 11.4477 16 12 16Z" fill="currentColor"/>
<path fill-rule="evenodd" clip-rule="evenodd" d="M5.87868 1.87868C6.44129 1.31607 7.20435 1 8 1H16C16.7956 1 17.5587 1.31607 18.1213 1.87868C18.6839 2.44129 19 3.20435 19 4C19 4.79565 18.6839 5.55871 18.1213 6.12132C17.5587 6.68393 16.7956 7 16 7V10.7595C16.0001 10.9455 16.0521 11.1278 16.1501 11.2859C16.2482 11.4441 16.3884 11.5717 16.555 11.6545L16.5612 11.6576L18.3385 12.5562C18.8368 12.8046 19.2561 13.1868 19.5496 13.66C19.8437 14.1344 19.9997 14.6813 20 15.2395V17C20 17.5523 19.5523 18 19 18H5C4.44772 18 4 17.5523 4 17V15.24C4.0003 14.6819 4.15628 14.1344 4.45042 13.66C4.74388 13.1868 5.16324 12.8046 5.66154 12.5562L7.44499 11.6544C7.61159 11.5717 7.75181 11.4441 7.84986 11.2859C7.94781 11.128 7.9998 10.9459 8 10.76V7C7.20435 7 6.44129 6.68393 5.87868 6.12132C5.31607 5.55871 5 4.79565 5 4C5 3.20435 5.31607 2.44129 5.87868 1.87868ZM8 3C7.73478 3 7.48043 3.10536 7.29289 3.29289C7.10536 3.48043 7 3.73478 7 4C7 4.26522 7.10536 4.51957 7.29289 4.70711C7.48043 4.89464 7.73478 5 8 5H9C9.55228 5 10 5.44772 10 6V10.76C9.9997 11.3181 9.84372 11.8656 9.54958 12.34C9.25612 12.8132 8.83676 13.1954 8.33846 13.4438L6.55501 14.3456C6.38841 14.4283 6.24819 14.5559 6.15014 14.7141C6.05213 14.8721 6.00013 15.0544 6 15.2403V16H18V15.2405C17.9999 15.0545 17.9479 14.8722 17.8499 14.7141C17.7518 14.5559 17.6116 14.4283 17.445 14.3455L17.4388 14.3424L15.6615 13.4438C15.1632 13.1954 14.7439 12.8132 14.4504 12.34C14.1563 11.8656 14.0003 11.3187 14 10.7605V6C14 5.44772 14.4477 5 15 5H16C16.2652 5 16.5196 4.89464 16.7071 4.70711C16.8946 4.51957 17 4.26522 17 4C17 3.73478 16.8946 3.48043 16.7071 3.29289C16.5196 3.10536 16.2652 3 16 3H8Z" fill="currentColor"/>
</svg>
