<svg width="24" height="24" viewBox="0 0 24 24" fill="none" xmlns="http://www.w3.org/2000/svg">
<path fill-rule="evenodd" clip-rule="evenodd" d="M10.175 2.81918C10.7465 3.39294 11 4.17367 11 5V13C11 16.6899 9.93892 19.0239 8.25826 20.399C6.61588 21.7427 4.58175 22 3.00002 22C2.98732 22 2.97453 22 2.96166 22C2.74599 22.0001 2.50872 22.0002 2.31146 21.9783C2.10981 21.9558 1.72824 21.8924 1.41791 21.5821C1.10759 21.2718 1.04417 20.8902 1.02176 20.6886C0.999843 20.4913 0.99993 20.254 1.00001 20.0384C1.00001 20.0255 1.00002 20.0127 1.00002 20V18.031C1.00002 18.0184 1.00001 18.0057 1.00001 17.9929C0.999938 17.7711 0.99986 17.5305 1.02143 17.3309C1.04324 17.1291 1.10409 16.7506 1.40452 16.4384C1.7116 16.1194 2.09412 16.0492 2.30373 16.0242C2.50823 15.9999 2.75268 16 2.9724 16L3.00002 16C3.17479 16 3.43326 15.9025 3.66791 15.6679C3.90257 15.4332 4.00002 15.1748 4.00002 15V14C3.17451 14 2.39672 13.7484 1.82416 13.1759C1.2516 12.6033 1.00002 11.8255 1.00002 11V4.972C1.00002 4.15453 1.25521 3.38378 1.82779 2.81703C2.39929 2.25135 3.17467 2 4.00002 2H7.99369C8.82402 1.9902 9.60293 2.24479 10.175 2.81918ZM8.75801 4.23057C8.64279 4.1149 8.42461 3.99429 8.01368 3.9999L8.00002 4.00009V4H4.00002C3.57537 4 3.35075 4.12364 3.23475 4.23846C3.11983 4.35221 3.00002 4.56747 3.00002 4.972V11C3.00002 11.4245 3.12344 11.6467 3.23838 11.7616C3.35332 11.8766 3.57553 12 4.00002 12C4.01272 12 4.02551 12 4.03838 12C4.25405 11.9999 4.49132 11.9998 4.68858 12.0217C4.89023 12.0441 5.2718 12.1076 5.58213 12.4179C5.89245 12.7282 5.95587 13.1098 5.97828 13.3114C6.00019 13.5087 6.00011 13.746 6.00003 13.9616C6.00002 13.9745 6.00002 13.9873 6.00002 14V15C6.00002 15.8252 5.59747 16.5668 5.08213 17.0821C4.56678 17.5975 3.82525 18 3.00002 18C3.00002 18.0102 3.00002 18.0205 3.00002 18.031V20C4.41828 20 5.88416 19.7573 6.99178 18.851C8.06112 17.9761 9.00002 16.3101 9.00002 13V5C9.00002 4.57632 8.87552 4.34855 8.75801 4.23057Z" fill="currentColor"/>
<path fill-rule="evenodd" clip-rule="evenodd" d="M22.1745 2.81905C22.7461 3.39265 23 4.17331 23 5V13C23 16.6899 21.9389 19.0239 20.2583 20.399C18.6159 21.7427 16.5818 22 15 22C14.9873 22 14.9745 22 14.9617 22C14.746 22.0001 14.5087 22.0002 14.3115 21.9783C14.1098 21.9558 13.7282 21.8924 13.4179 21.5821C13.1076 21.2718 13.0442 20.8902 13.0218 20.6886C12.9998 20.4913 12.9999 20.254 13 20.0384C13 20.0255 13 20.0127 13 20V17C13 16.4477 13.4477 16 14 16C14.6664 16 15.0409 15.9006 15.2481 15.797C15.4233 15.7094 15.5142 15.6032 15.5829 15.445C15.6669 15.2518 15.7219 14.9657 15.7434 14.5255C15.7518 14.3533 15.7547 14.1777 15.7551 13.9925C15.0217 13.9467 14.3397 13.6914 13.8242 13.1759C13.2516 12.6033 13 11.8255 13 11V4.972C13 4.15453 13.2552 3.38378 13.8278 2.81703C14.3993 2.25135 15.1747 2 16 2H19.9937C20.8237 1.9902 21.6025 2.24489 22.1745 2.81905ZM20.7578 4.2307C20.6423 4.11479 20.4239 3.99429 20.0137 3.9999L20 4.00009V4H16C15.5754 4 15.3507 4.12364 15.2347 4.23846C15.1198 4.35221 15 4.56747 15 4.972V11C15 11.4245 15.1234 11.6467 15.2384 11.7616C15.3533 11.8766 15.5755 12 16 12H16.75C17.3023 12 17.75 12.4477 17.75 13C17.75 13.1437 17.7512 13.2928 17.7525 13.4441C17.7557 13.8403 17.7591 14.2521 17.741 14.6229C17.7156 15.1437 17.6456 15.7169 17.4171 16.2425C17.1734 16.803 16.7642 17.275 16.1425 17.5858C15.8036 17.7553 15.4218 17.8668 15 17.931V20C16.4183 20 17.8842 19.7573 18.9918 18.851C20.0611 17.9761 21 16.3101 21 13V5C21 4.57668 20.8755 4.34885 20.7578 4.2307Z" fill="currentColor"/>
</svg>
