<svg width="24" height="24" viewBox="0 0 24 24" fill="none" xmlns="http://www.w3.org/2000/svg">
<path fill-rule="evenodd" clip-rule="evenodd" d="M11 4C7.13401 4 4 7.13401 4 11C4 14.866 7.13401 18 11 18C14.866 18 18 14.866 18 11C18 7.13401 14.866 4 11 4ZM2 11C2 6.02944 6.02944 2 11 2C15.9706 2 20 6.02944 20 11C20 15.9706 15.9706 20 11 20C6.02944 20 2 15.9706 2 11Z" fill="currentColor"/>
<path fill-rule="evenodd" clip-rule="evenodd" d="M15.9928 15.9929C16.3834 15.6024 17.0165 15.6024 17.4071 15.9929L21.7071 20.2929C22.0976 20.6834 22.0976 21.3166 21.7071 21.7071C21.3165 22.0976 20.6834 22.0976 20.2928 21.7071L15.9928 17.4071C15.6023 17.0166 15.6023 16.3834 15.9928 15.9929Z" fill="currentColor"/>
</svg>
