<svg width="24" height="24" viewBox="0 0 24 24" fill="none" xmlns="http://www.w3.org/2000/svg">
<path d="M19.589 6.686C18.5903 6.47238 17.686 5.94535 17.0078 5.18175C16.3297 4.41816 15.9131 3.45791 15.819 2.441V2H12.374V15.672C12.3718 16.2773 12.1801 16.8667 11.8257 17.3574C11.4713 17.848 10.9721 18.2154 10.3982 18.4077C9.8243 18.6 9.20455 18.6077 8.62605 18.4297C8.04756 18.2516 7.53939 17.8968 7.17296 17.415C6.80084 16.9252 6.59442 16.3296 6.58363 15.7145C6.57283 15.0995 6.75823 14.497 7.11293 13.9944C7.46763 13.4918 7.97319 13.1153 8.55631 12.9194C9.13943 12.7235 9.76978 12.7185 10.356 12.905V9.405C9.04881 9.2243 7.71788 9.45669 6.54931 10.0697C5.38074 10.6826 4.433 11.6455 3.83864 12.8237C3.24428 14.0018 3.03303 15.3363 3.23444 16.6404C3.43586 17.9445 4.03986 19.1531 4.96196 20.097C5.84132 20.9967 6.96885 21.6141 8.20062 21.8701C9.43239 22.1262 10.7125 22.0094 11.8776 21.5346C13.0427 21.0599 14.0399 20.2487 14.7419 19.2047C15.4439 18.1606 15.8189 16.9311 15.819 15.673V8.687C17.2112 9.68234 18.8805 10.216 20.592 10.213V6.79C20.2549 6.79042 19.9188 6.75556 19.589 6.686Z" fill="currentColor"/>
</svg>
