<svg width="24" height="24" viewBox="0 0 24 24" fill="none" xmlns="http://www.w3.org/2000/svg">
<path fill-rule="evenodd" clip-rule="evenodd" d="M9 2C9 1.44772 9.44772 1 10 1H14C14.5523 1 15 1.44772 15 2C15 2.55228 14.5523 3 14 3H10C9.44772 3 9 2.55228 9 2Z" fill="currentColor"/>
<path fill-rule="evenodd" clip-rule="evenodd" d="M15.7071 10.2929C16.0976 10.6834 16.0976 11.3166 15.7071 11.7071L12.7071 14.7071C12.3166 15.0976 11.6834 15.0976 11.2929 14.7071C10.9024 14.3166 10.9024 13.6834 11.2929 13.2929L14.2929 10.2929C14.6834 9.90237 15.3166 9.90237 15.7071 10.2929Z" fill="currentColor"/>
<path fill-rule="evenodd" clip-rule="evenodd" d="M12 7C8.13401 7 5 10.134 5 14C5 17.866 8.13401 21 12 21C15.866 21 19 17.866 19 14C19 10.134 15.866 7 12 7ZM3 14C3 9.02944 7.02944 5 12 5C16.9706 5 21 9.02944 21 14C21 18.9706 16.9706 23 12 23C7.02944 23 3 18.9706 3 14Z" fill="currentColor"/>
</svg>
