<svg width="24" height="24" viewBox="0 0 24 24" fill="none" xmlns="http://www.w3.org/2000/svg">
<path fill-rule="evenodd" clip-rule="evenodd" d="M14.4995 5.36184C13.3847 5.94266 12.6281 7.1586 12.9778 8.79046C13.04 9.08072 12.97 9.38361 12.7868 9.61717C12.6036 9.85074 12.3261 9.99083 12.0294 9.99956C8.85318 10.093 5.68311 8.90756 3.33181 6.77793C2.17211 10.5584 4.34459 14.8594 8.28731 16.0422C8.63583 16.1467 8.90006 16.4323 8.97722 16.7879C9.05438 17.1435 8.93231 17.513 8.65847 17.7526C7.72707 18.5675 6.62528 19.167 5.4446 19.5425C12.655 21.7458 20.3025 15.6202 19.0125 7.55798C18.9619 7.24135 19.0661 6.91963 19.2929 6.69289C19.474 6.51173 19.6444 6.30781 19.8028 6.09234C19.5441 6.15602 19.27 6.19999 19 6.19999C18.7467 6.19999 18.5028 6.10387 18.3176 5.93105C17.1475 4.83893 15.6359 4.76976 14.4995 5.36184ZM22 3.99999C22.9486 4.31622 22.9486 4.3164 22.9485 4.31659L22.9472 4.32053L22.9447 4.3279L22.9366 4.35156C22.9298 4.37121 22.9202 4.39853 22.9078 4.43279C22.883 4.50126 22.8471 4.59772 22.8001 4.71636C22.7065 4.95308 22.5678 5.28112 22.3851 5.65317C22.0841 6.26636 21.6423 7.04364 21.0564 7.72867C22.3641 18.3194 10.6485 25.9319 1.4475 19.8335C1.07276 19.5852 0.909836 19.1172 1.04928 18.6898C1.18873 18.2624 1.59626 17.9806 2.04537 18.001C3.40586 18.0629 4.75224 17.7814 5.91174 17.2016C1.55033 14.7954 -0.367533 9.10201 2.12134 4.52248C2.27896 4.23245 2.56956 4.0389 2.89792 4.00521C3.22629 3.97153 3.55013 4.10206 3.76335 4.35405C5.53198 6.44425 8.16415 7.759 10.891 7.97359C10.9016 5.98025 12.024 4.39646 13.5754 3.58814C15.2933 2.69312 17.5348 2.74857 19.3143 4.15279C19.4008 4.13182 19.5003 4.1031 19.6125 4.06515C19.8906 3.97115 20.1893 3.84067 20.4726 3.70193C20.7536 3.56432 21.0051 3.42561 21.1868 3.32096C21.2772 3.26889 21.3492 3.2259 21.3976 3.19652C21.4218 3.18185 21.44 3.17063 21.4517 3.16342L21.464 3.15572L21.466 3.1545C21.8233 2.92893 22.2841 2.9522 22.6167 3.21284C22.9494 3.47353 23.0822 3.91561 22.9485 4.31659L22 3.99999Z" fill="currentColor"/>
</svg>
