<svg width="24" height="24" viewBox="0 0 24 24" fill="none" xmlns="http://www.w3.org/2000/svg">
<path fill-rule="evenodd" clip-rule="evenodd" d="M2.46447 15.4645C3.40215 14.5268 4.67392 14 6 14H12C13.3261 14 14.5979 14.5268 15.5355 15.4645C16.4732 16.4021 17 17.6739 17 19V21C17 21.5523 16.5523 22 16 22C15.4477 22 15 21.5523 15 21V19C15 18.2044 14.6839 17.4413 14.1213 16.8787C13.5587 16.3161 12.7956 16 12 16H6C5.20435 16 4.44129 16.3161 3.87868 16.8787C3.31607 17.4413 3 18.2044 3 19V21C3 21.5523 2.55228 22 2 22C1.44772 22 1 21.5523 1 21V19C1 17.6739 1.52678 16.4021 2.46447 15.4645Z" fill="currentColor"/>
<path fill-rule="evenodd" clip-rule="evenodd" d="M9 4C7.34315 4 6 5.34315 6 7C6 8.65685 7.34315 10 9 10C10.6569 10 12 8.65685 12 7C12 5.34315 10.6569 4 9 4ZM4 7C4 4.23858 6.23858 2 9 2C11.7614 2 14 4.23858 14 7C14 9.76142 11.7614 12 9 12C6.23858 12 4 9.76142 4 7Z" fill="currentColor"/>
<path fill-rule="evenodd" clip-rule="evenodd" d="M15 11C15 10.4477 15.4477 10 16 10H22C22.5523 10 23 10.4477 23 11C23 11.5523 22.5523 12 22 12H16C15.4477 12 15 11.5523 15 11Z" fill="currentColor"/>
</svg>
