<svg width="24" height="24" viewBox="0 0 24 24" fill="none" xmlns="http://www.w3.org/2000/svg">
<path fill-rule="evenodd" clip-rule="evenodd" d="M3.05025 14.0503C4.36301 12.7375 6.14348 12 8 12C9.85652 12 11.637 12.7375 12.9497 14.0503C14.2625 15.363 15 17.1435 15 19C15 19.5523 14.5523 20 14 20C13.4477 20 13 19.5523 13 19C13 17.6739 12.4732 16.4021 11.5355 15.4645C10.5979 14.5268 9.32608 14 8 14C6.67392 14 5.40215 14.5268 4.46447 15.4645C3.52678 16.4021 3 17.6739 3 19C3 19.5523 2.55228 20 2 20C1.44772 20 1 19.5523 1 19C1 17.1435 1.7375 15.363 3.05025 14.0503Z" fill="currentColor"/>
<path fill-rule="evenodd" clip-rule="evenodd" d="M8 6C6.34315 6 5 7.34315 5 9C5 10.6569 6.34315 12 8 12C9.65685 12 11 10.6569 11 9C11 7.34315 9.65685 6 8 6ZM3 9C3 6.23858 5.23858 4 8 4C10.7614 4 13 6.23858 13 9C13 11.7614 10.7614 14 8 14C5.23858 14 3 11.7614 3 9Z" fill="currentColor"/>
<path fill-rule="evenodd" clip-rule="evenodd" d="M19 7C19.5523 7 20 7.44772 20 8V14C20 14.5523 19.5523 15 19 15C18.4477 15 18 14.5523 18 14V8C18 7.44772 18.4477 7 19 7Z" fill="currentColor"/>
<path fill-rule="evenodd" clip-rule="evenodd" d="M15 11C15 10.4477 15.4477 10 16 10H22C22.5523 10 23 10.4477 23 11C23 11.5523 22.5523 12 22 12H16C15.4477 12 15 11.5523 15 11Z" fill="currentColor"/>
</svg>
