<svg width="24" height="24" viewBox="0 0 24 24" fill="none" xmlns="http://www.w3.org/2000/svg">
<path fill-rule="evenodd" clip-rule="evenodd" d="M4.12305 6.57672C3.9719 6.62526 3.83427 6.70917 3.72172 6.82171C3.6048 6.93863 3.5188 7.08262 3.47123 7.24071C2.81102 10.3792 2.81102 13.6208 3.47123 16.7593C3.5188 16.9174 3.6048 17.0614 3.72172 17.1783C3.83427 17.2908 3.97191 17.3747 4.12306 17.4233C9.33934 18.281 14.6607 18.281 19.877 17.4233C20.0281 17.3747 20.1657 17.2908 20.2783 17.1783C20.3952 17.0614 20.4812 16.9174 20.5288 16.7593C21.189 13.6208 21.189 10.3792 20.5288 7.24072C20.4812 7.08263 20.3952 6.93863 20.2783 6.82171C20.1657 6.70917 20.0281 6.62526 19.877 6.57672C14.6607 5.71922 9.33935 5.71922 4.12305 6.57672ZM3.73657 4.61345C9.20824 3.70698 14.7918 3.70698 20.2634 4.61345C20.2975 4.61908 20.3312 4.62647 20.3644 4.63559C20.8666 4.77327 21.3243 5.0393 21.6925 5.4075C22.0607 5.7757 22.3267 6.2334 22.4644 6.73559C22.4696 6.75449 22.4742 6.77353 22.4783 6.7927C23.2058 10.2261 23.2058 13.7739 22.4783 17.2073C22.4742 17.2265 22.4696 17.2455 22.4644 17.2644C22.3267 17.7666 22.0607 18.2243 21.6925 18.5925C21.3243 18.9607 20.8666 19.2267 20.3644 19.3644C20.3312 19.3735 20.2975 19.3809 20.2635 19.3865C14.7918 20.2932 9.20821 20.2932 3.73654 19.3865C3.70253 19.3809 3.66884 19.3735 3.6356 19.3644C3.13341 19.2267 2.67571 18.9607 2.30751 18.5925C1.9393 18.2243 1.67328 17.7666 1.5356 17.2644C1.53042 17.2455 1.52579 17.2265 1.52173 17.2073C0.794189 13.7739 0.794189 10.2261 1.52173 6.7927C1.52579 6.77353 1.53042 6.75449 1.5356 6.73559C1.67328 6.2334 1.9393 5.7757 2.30751 5.4075C2.67571 5.0393 3.13341 4.77327 3.6356 4.63559C3.66885 4.62647 3.70255 4.61908 3.73657 4.61345Z" fill="currentColor"/>
<path fill-rule="evenodd" clip-rule="evenodd" d="M9.5073 8.1298C9.82081 7.95229 10.2056 7.95715 10.5145 8.14251L15.5145 11.1425C15.8157 11.3232 16 11.6487 16 12C16 12.3513 15.8157 12.6768 15.5145 12.8575L10.5145 15.8575C10.2056 16.0429 9.82081 16.0477 9.5073 15.8702C9.19379 15.6927 9 15.3603 9 15V9C9 8.63973 9.19379 8.30731 9.5073 8.1298ZM11 10.7662V13.2338L13.0563 12L11 10.7662Z" fill="currentColor"/>
</svg>
