<?xml version="1.0" encoding="utf-8"?><svg xmlns="http://www.w3.org/2000/svg" xmlns:xlink="http://www.w3.org/1999/xlink"><defs><svg fill="none" viewBox="0 0 24 24" id="account" xmlns="http://www.w3.org/2000/svg"><path d="M12 4a4 4 0 1 1 0 8 4 4 0 0 1 0-8Zm0 10c4.42 0 8 1.79 8 4v2H4v-2c0-2.21 3.58-4 8-4Z" fill="currentColor"/></svg><svg fill="none" viewBox="0 0 24 24" id="alert" xmlns="http://www.w3.org/2000/svg"><path d="M13 14h-2V9h2m0 9h-2v-2h2M1 21h22L12 2 1 21Z" fill="currentColor"/></svg><svg fill="none" viewBox="0 0 24 24" id="alert_circle" xmlns="http://www.w3.org/2000/svg"><path fill-rule="evenodd" clip-rule="evenodd" d="M12 3a9 9 0 1 0 0 18 9 9 0 0 0 0-18ZM1 12C1 5.925 5.925 1 12 1s11 4.925 11 11-4.925 11-11 11S1 18.075 1 12Z" fill="currentColor"/><path fill-rule="evenodd" clip-rule="evenodd" d="M12 7a1 1 0 0 1 1 1v4a1 1 0 1 1-2 0V8a1 1 0 0 1 1-1ZM11 16a1 1 0 0 1 1-1h.01a1 1 0 1 1 0 2H12a1 1 0 0 1-1-1Z" fill="currentColor"/></svg><svg fill="none" viewBox="0 0 24 24" id="archive" xmlns="http://www.w3.org/2000/svg"><path d="M3 3h18v4H3V3Zm1 5h16v13H4V8Zm5.5 3a.5.5 0 0 0-.5.5V13h6v-1.5a.5.5 0 0 0-.5-.5h-5Z" fill="currentColor"/></svg><svg fill="none" viewBox="0 0 24 24" id="arrow_down" xmlns="http://www.w3.org/2000/svg"><path d="M11 4h2v12l5.5-5.5 1.42 1.42L12 19.84l-7.92-7.92L5.5 10.5 11 16V4Z" fill="currentColor"/></svg><svg fill="none" viewBox="0 0 24 24" id="arrow_left" xmlns="http://www.w3.org/2000/svg"><path d="M20 11v2H8l5.5 5.5-1.42 1.42L4.16 12l7.92-7.92L13.5 5.5 8 11h12Z" fill="currentColor"/></svg><svg fill="none" viewBox="0 0 24 24" id="arrow_right" xmlns="http://www.w3.org/2000/svg"><path d="M4 11v2h12l-5.5 5.5 1.42 1.42L19.84 12l-7.92-7.92L10.5 5.5 16 11H4Z" fill="currentColor"/></svg><svg fill="none" viewBox="0 0 24 24" id="arrow_split_vertical" xmlns="http://www.w3.org/2000/svg"><path d="M18 16v-3h-3v9h-2V2h2v9h3V8l4 4-4 4ZM2 12l4 4v-3h3v9h2V2H9v9H6V8l-4 4Z" fill="currentColor"/></svg><svg fill="none" viewBox="0 0 24 24" id="arrow_u_left_top" xmlns="http://www.w3.org/2000/svg"><path d="M20 13.5a6.5 6.5 0 0 1-6.5 6.5H6v-2h7.5c2.5 0 4.5-2 4.5-4.5S16 9 13.5 9H7.83l3.08 3.09L9.5 13.5 4 8l5.5-5.5 1.42 1.41L7.83 7h5.67a6.5 6.5 0 0 1 6.5 6.5Z" fill="currentColor"/></svg><svg fill="none" viewBox="0 0 24 24" id="arrow_u_right_top" xmlns="http://www.w3.org/2000/svg"><path d="M10.5 18H18v2h-7.5a6.5 6.5 0 1 1 0-13h5.67l-3.09-3.09L14.5 2.5 20 8l-5.5 5.5-1.41-1.41L16.17 9H10.5C8 9 6 11 6 13.5S8 18 10.5 18Z" fill="currentColor"/></svg><svg fill="none" viewBox="0 0 24 24" id="arrow_up" xmlns="http://www.w3.org/2000/svg"><path d="M13 20h-2V8l-5.5 5.5-1.42-1.42L12 4.16l7.92 7.92-1.42 1.42L13 8v12Z" fill="currentColor"/></svg><svg fill="none" viewBox="0 0 24 24" id="arrow_up_down" xmlns="http://www.w3.org/2000/svg"><path d="M17.45 17.55 12 23l-5.45-5.45 1.41-1.41L11 19.17V4.83L7.96 7.86 6.55 6.45 12 1l5.45 5.45-1.41 1.41L13 4.83v14.34l3.04-3.03 1.41 1.41Z" fill="currentColor"/></svg><svg fill="none" viewBox="0 0 24 24" id="button_pointer" xmlns="http://www.w3.org/2000/svg"><path d="M20 20.5c0 .8-.7 1.5-1.5 1.5H13c-.4 0-.7-.1-1-.4l-4-4.2.7-.8c.2-.2.5-.3.8-.3h.2L12 18V9c0-.6.4-1 1-1s1 .4 1 1v4.5l1.2.1 3.9 2.2c.5.2.9.8.9 1.3v3.4ZM20 2H4c-1.1 0-2 .9-2 2v8c0 1.1.9 2 2 2h4v-2H4V4h16v8h-2v2h2c1.1 0 2-.9 2-2V4c0-1.1-.9-2-2-2Z" fill="currentColor"/></svg><svg fill="none" viewBox="0 0 24 24" id="calendar_filter" xmlns="http://www.w3.org/2000/svg"><path d="M6 1h2v2h8V1h2v2h1a2 2 0 0 1 2 2v6h-2V8H5v11h10v2H5a2 2 0 0 1-2-2V5c0-1.1.9-2 2-2h1V1Zm11 20 1.8 1.77c.5.5 1.2.1 1.2-.49V18l2.8-3.4A1 1 0 0 0 22 13h-7c-.8 0-1.3 1-.8 1.6L17 18v3Z" fill="currentColor"/></svg><svg fill="none" viewBox="0 0 24 24" id="calendar_range" xmlns="http://www.w3.org/2000/svg"><path d="M9 10H7v2h2v-2Zm4 0h-2v2h2v-2Zm4 0h-2v2h2v-2Zm2-7h-1V1h-2v2H8V1H6v2H5a2 2 0 0 0-2 2v14a2 2 0 0 0 2 2h14a2 2 0 0 0 2-2V5a2 2 0 0 0-2-2Zm0 16H5V8h14v11Z" fill="currentColor"/></svg><svg fill="none" viewBox="0 0 24 24" id="camera" xmlns="http://www.w3.org/2000/svg"><path d="M4 4h3l2-2h6l2 2h3a2 2 0 0 1 2 2v12a2 2 0 0 1-2 2H4a2 2 0 0 1-2-2V6a2 2 0 0 1 2-2Zm8 3a5 5 0 1 0 0 10 5 5 0 0 0 0-10Zm0 2a3 3 0 1 1 0 6 3 3 0 0 1 0-6Z" fill="currentColor"/></svg><svg fill="currentColor" viewBox="0 0 24 24" id="camera_alt" xmlns="http://www.w3.org/2000/svg"><path d="M0 0h24v24H0z" fill="none"/><circle cx="12" cy="12" r="3.2"/><path d="M9 2 7.17 4H4c-1.1 0-2 .9-2 2v12c0 1.1.9 2 2 2h16c1.1 0 2-.9 2-2V6c0-1.1-.9-2-2-2h-3.17L15 2H9zm3 15c-2.76 0-5-2.24-5-5s2.24-5 5-5 5 2.24 5 5-2.24 5-5 5z"/></svg><svg fill="none" viewBox="0 0 24 24" id="cart" xmlns="http://www.w3.org/2000/svg"><path d="M17 18c-1.11 0-2 .89-2 2a2 2 0 1 0 2-2ZM1 2v2h2l3.6 7.59-1.36 2.45c-.15.28-.24.61-.24.96a2 2 0 0 0 2 2h12v-2H7.42a.25.25 0 0 1-.25-.25c0-.05.01-.09.03-.12L8.1 13h7.45c.75 0 1.41-.42 1.75-1.03l3.58-6.47c.07-.16.12-.33.12-.5a1 1 0 0 0-1-1H5.21l-.94-2M7 18c-1.11 0-2 .89-2 2a2 2 0 1 0 2-2Z" fill="currentColor"/></svg><svg fill="none" viewBox="0 0 24 24" id="cellphone_text" xmlns="http://www.w3.org/2000/svg"><path d="M17 19V5H7v14h10Zm0-18a2 2 0 0 1 2 2v18a2 2 0 0 1-2 2H7a2 2 0 0 1-2-2V3c0-1.11.89-2 2-2h10ZM9 7h6v2H9V7Zm0 4h4v2H9v-2Z" fill="currentColor"/></svg><svg fill="none" viewBox="0 0 24 24" id="check" xmlns="http://www.w3.org/2000/svg"><path d="M21 7 9 19l-5.5-5.5 1.41-1.41L9 16.17 19.59 5.59 21 7Z" fill="currentColor"/></svg><svg fill="currentColor" viewBox="0 0 24 24" id="check_circle" xmlns="http://www.w3.org/2000/svg"><path d="M0 0h24v24H0z" fill="none"/><path d="M12 2C6.48 2 2 6.48 2 12s4.48 10 10 10 10-4.48 10-10S17.52 2 12 2zm-2 15-5-5 1.41-1.41L10 14.17l7.59-7.59L19 8l-9 9z"/></svg><svg fill="none" viewBox="0 0 24 24" id="check_circle_outline" xmlns="http://www.w3.org/2000/svg"><path d="M12 2C6.5 2 2 6.5 2 12s4.5 10 10 10 10-4.5 10-10S17.5 2 12 2Zm0 18c-4.41 0-8-3.59-8-8s3.59-8 8-8 8 3.59 8 8-3.59 8-8 8Zm4.59-12.42L10 14.17l-2.59-2.58L6 13l4 4 8-8-1.41-1.42Z" fill="currentColor"/></svg><svg fill="none" viewBox="0 0 24 24" id="checkbox_blank_circle_outline" xmlns="http://www.w3.org/2000/svg"><path d="M12 20a8 8 0 1 1 0-16 8 8 0 0 1 0 16Zm0-18a10 10 0 1 0 0 20 10 10 0 0 0 0-20Z" fill="currentColor"/></svg><svg fill="none" viewBox="0 0 24 24" id="checkbox_marked" xmlns="http://www.w3.org/2000/svg"><path d="m10 17-5-5 1.41-1.42L10 14.17l7.59-7.59L19 8m0-5H5c-1.11 0-2 .89-2 2v14a2 2 0 0 0 2 2h14a2 2 0 0 0 2-2V5a2 2 0 0 0-2-2Z" fill="currentColor"/></svg><svg fill="none" viewBox="0 0 24 24" id="chevron_double_left" xmlns="http://www.w3.org/2000/svg"><path d="M18.41 7.41 17 6l-6 6 6 6 1.41-1.41L13.83 12l4.58-4.59Zm-6 0L11 6l-6 6 6 6 1.41-1.41L7.83 12l4.58-4.59Z" fill="currentColor"/></svg><svg fill="none" viewBox="0 0 24 24" id="chevron_double_right" xmlns="http://www.w3.org/2000/svg"><path d="M5.59 7.41 7 6l6 6-6 6-1.41-1.41L10.17 12 5.59 7.41Zm6 0L13 6l6 6-6 6-1.41-1.41L16.17 12l-4.58-4.59Z" fill="currentColor"/></svg><svg fill="none" viewBox="0 0 24 24" id="chevron_down" xmlns="http://www.w3.org/2000/svg"><path d="M7.41 8.58 12 13.17l4.59-4.59L18 10l-6 6-6-6 1.41-1.42Z" fill="currentColor"/></svg><svg fill="none" viewBox="0 0 24 24" id="chevron_left" xmlns="http://www.w3.org/2000/svg"><path d="M15.41 16.58 10.83 12l4.58-4.59L14 6l-6 6 6 6 1.41-1.42Z" fill="currentColor"/></svg><svg fill="none" viewBox="0 0 24 24" id="chevron_right" xmlns="http://www.w3.org/2000/svg"><path d="M8.59 16.58 13.17 12 8.59 7.41 10 6l6 6-6 6-1.41-1.42Z" fill="currentColor"/></svg><svg fill="none" viewBox="0 0 24 24" id="chevron_up" xmlns="http://www.w3.org/2000/svg"><path d="M7.41 15.41 12 10.83l4.59 4.58L18 14l-6-6-6 6 1.41 1.41Z" fill="currentColor"/></svg><svg fill="none" viewBox="0 0 24 24" id="clipboard_edit_outline" xmlns="http://www.w3.org/2000/svg"><path d="M21.04 12.13c.14 0 .27.06.38.17l1.28 1.28c.22.21.22.56 0 .77l-1 1-2.05-2.05 1-1c.11-.11.25-.17.39-.17Zm-1.97 1.75 2.05 2.05L15.06 22H13v-2.06l6.07-6.06ZM11 19l-2 2H5c-1.1 0-2-.9-2-2V5c0-1.1.9-2 2-2h4.18C9.6 1.84 10.7 1 12 1c1.3 0 2.4.84 2.82 2H19c1.1 0 2 .9 2 2v4l-2 2V5h-2v2H7V5H5v14h6Zm1-16c-.55 0-1 .45-1 1s.45 1 1 1 1-.45 1-1-.45-1-1-1Z" fill="currentColor"/></svg><svg fill="none" viewBox="0 0 24 24" id="clock_outline" xmlns="http://www.w3.org/2000/svg"><path d="M12 20a8 8 0 1 0 0-16.001A8 8 0 0 0 12 20Zm0-18a10 10 0 1 1 0 20C6.47 22 2 17.5 2 12A10 10 0 0 1 12 2Zm.5 5v5.25l4.5 2.67-.75 1.23L11 13V7h1.5Z" fill="currentColor"/></svg><svg fill="none" viewBox="0 0 24 24" id="close" xmlns="http://www.w3.org/2000/svg"><path d="M19 6.41 17.59 5 12 10.59 6.41 5 5 6.41 10.59 12 5 17.59 6.41 19 12 13.41 17.59 19 19 17.59 13.41 12 19 6.41Z" fill="currentColor"/></svg><svg fill="none" viewBox="0 0 24 24" id="cog" xmlns="http://www.w3.org/2000/svg"><path d="M12 15.5a3.5 3.5 0 1 1 0-7 3.5 3.5 0 0 1 0 7Zm7.43-2.53c.04-.32.07-.64.07-.97 0-.33-.03-.66-.07-1l2.11-1.63c.19-.15.24-.42.12-.64l-2-3.46c-.12-.22-.39-.31-.61-.22l-2.49 1c-.52-.39-1.06-.73-1.69-.98l-.37-2.65A.506.506 0 0 0 14 2h-4c-.25 0-.46.18-.5.42l-.37 2.65c-.63.25-1.17.59-1.69.98l-2.49-1c-.22-.09-.49 0-.61.22l-2 3.46c-.13.22-.07.49.12.64L4.57 11c-.04.34-.07.67-.07 1 0 .33.03.65.07.97l-2.11 1.66c-.19.15-.25.42-.12.64l2 3.46c.12.22.39.3.61.22l2.49-1.01c.52.4 1.06.74 1.69.99l.37 2.65c.04.24.25.42.5.42h4c.25 0 .46-.18.5-.42l.37-2.65c.63-.26 1.17-.59 1.69-.99l2.49 1.01c.22.08.49 0 .61-.22l2-3.46c.12-.22.07-.49-.12-.64l-2.11-1.66Z" fill="currentColor"/></svg><svg fill="none" viewBox="0 0 24 24" id="content_copy" xmlns="http://www.w3.org/2000/svg"><path d="M19 21H8V7h11m0-2H8a2 2 0 0 0-2 2v14a2 2 0 0 0 2 2h11a2 2 0 0 0 2-2V7a2 2 0 0 0-2-2Zm-3-4H4a2 2 0 0 0-2 2v14h2V3h12V1Z" fill="currentColor"/></svg><svg viewBox="0 -960 960 960" fill="currentColor" id="content_save" xmlns="http://www.w3.org/2000/svg"><path d="M840-680v480q0 33-23.5 56.5T760-120H200q-33 0-56.5-23.5T120-200v-560q0-33 23.5-56.5T200-840h480l160 160ZM480-240q50 0 85-35t35-85q0-50-35-85t-85-35q-50 0-85 35t-35 85q0 50 35 85t85 35ZM240-560h360v-160H240v160Z"/></svg><svg fill="none" viewBox="0 0 24 24" id="creation" xmlns="http://www.w3.org/2000/svg"><path d="m19 1-1.26 2.75L15 5l2.74 1.26L19 9l1.25-2.74L23 5l-2.75-1.25M9 4 6.5 9.5 1 12l5.5 2.5L9 20l2.5-5.5L17 12l-5.5-2.5M19 15l-1.26 2.74L15 19l2.74 1.25L19 23l1.25-2.75L23 19l-2.75-1.26" fill="currentColor"/></svg><svg fill="none" viewBox="0 0 24 24" id="credit_card_scan_outline" xmlns="http://www.w3.org/2000/svg"><g clip-path="url(#bla)"><path d="M2 4h4V2H2a2 2 0 0 0-2 2v4h2V4Zm20-2h-4v2h4v4h2V4a2 2 0 0 0-2-2ZM2 16H0v4a2 2 0 0 0 2 2h4v-2H2v-4Zm20 4h-4v2h4a2 2 0 0 0 2-2v-4h-2v4ZM4 8v8a2 2 0 0 0 2 2h12a2 2 0 0 0 2-2V8a2 2 0 0 0-2-2H6a2 2 0 0 0-2 2Zm2 8v-4h12v4H6Zm12-8v2H6V8h12Z" fill="currentColor"/></g><defs><clipPath id="bla"><path fill="transparent" d="M0 0h24v24H0z"/></clipPath></defs></svg><svg fill="currentColor" viewBox="0 0 24 24" id="crop" xmlns="http://www.w3.org/2000/svg"><path d="M0 0h24v24H0z" fill="none"/><path d="M17 15h2V7c0-1.1-.9-2-2-2H9v2h8v8zM7 17V1H5v4H1v2h4v10c0 1.1.9 2 2 2h10v4h2v-4h4v-2H7z"/></svg><svg fill="none" viewBox="0 0 24 24" id="delete" xmlns="http://www.w3.org/2000/svg"><path d="M19 4h-3.5l-1-1h-5l-1 1H5v2h14M6 19a2 2 0 0 0 2 2h8a2 2 0 0 0 2-2V7H6v12Z" fill="currentColor"/></svg><svg fill="none" viewBox="0 0 16 16" id="dots_horizontal" xmlns="http://www.w3.org/2000/svg"><path d="M10.667 8a1.333 1.333 0 1 1 2.666 0 1.333 1.333 0 0 1-2.666 0Zm-4 0a1.333 1.333 0 1 1 2.666 0 1.333 1.333 0 0 1-2.666 0Zm-4 0a1.333 1.333 0 1 1 2.666 0 1.333 1.333 0 0 1-2.666 0Z" fill="currentColor"/></svg><svg fill="none" viewBox="0 0 24 24" id="dots_vertical" xmlns="http://www.w3.org/2000/svg"><path d="M12 16a2 2 0 1 1 0 4 2 2 0 0 1 0-4Zm0-6a2 2 0 1 1 0 4 2 2 0 0 1 0-4Zm0-6a2 2 0 1 1 0 4 2 2 0 0 1 0-4Z" fill="currentColor"/></svg><svg fill="none" viewBox="0 0 24 24" id="download" xmlns="http://www.w3.org/2000/svg"><path d="M5 20h14v-2H5m14-9h-4V3H9v6H5l7 7 7-7Z" fill="currentColor"/></svg><svg fill="none" viewBox="0 0 24 24" id="drag" xmlns="http://www.w3.org/2000/svg"><path d="M7 19v-2h2v2H7Zm4 0v-2h2v2h-2Zm4 0v-2h2v2h-2Zm-8-4v-2h2v2H7Zm4 0v-2h2v2h-2Zm4 0v-2h2v2h-2Zm-8-4V9h2v2H7Zm4 0V9h2v2h-2Zm4 0V9h2v2h-2ZM7 7V5h2v2H7Zm4 0V5h2v2h-2Zm4 0V5h2v2h-2Z" fill="currentColor"/></svg><svg fill="none" viewBox="0 0 24 24" id="drag_alternative" xmlns="http://www.w3.org/2000/svg"><path d="M11 18c0 1.1-.9 2-2 2s-2-.9-2-2 .9-2 2-2 2 .9 2 2Zm-2-8c-1.1 0-2 .9-2 2s.9 2 2 2 2-.9 2-2-.9-2-2-2Zm0-6c-1.1 0-2 .9-2 2s.9 2 2 2 2-.9 2-2-.9-2-2-2Zm6 4c1.1 0 2-.9 2-2s-.9-2-2-2-2 .9-2 2 .9 2 2 2Zm0 2c-1.1 0-2 .9-2 2s.9 2 2 2 2-.9 2-2-.9-2-2-2Zm0 6c-1.1 0-2 .9-2 2s.9 2 2 2 2-.9 2-2-.9-2-2-2Z" fill="currentColor"/></svg><svg fill="none" viewBox="0 0 24 24" id="edit" xmlns="http://www.w3.org/2000/svg"><path d="M20.71 7.04c.39-.39.39-1.04 0-1.41l-2.34-2.34c-.37-.39-1.02-.39-1.41 0l-1.84 1.83 3.75 3.75M3 17.25V21h3.75L17.81 9.93l-3.75-3.75L3 17.25Z" fill="currentColor"/></svg><svg fill="none" viewBox="0 0 24 24" id="edit_box" xmlns="http://www.w3.org/2000/svg"><path d="M19 3a2 2 0 0 1 2 2v14a2 2 0 0 1-2 2H5a2 2 0 0 1-2-2V5a2 2 0 0 1 2-2h14Zm-2.3 6.35c.22-.21.22-.56 0-.77L15.42 7.3a.532.532 0 0 0-.77 0l-1 1 2.05 2.05 1-1ZM7 14.94V17h2.06l6.06-6.06-2.06-2.06L7 14.94Z" fill="currentColor"/></svg><svg fill="none" viewBox="0 0 24 24" id="eye" xmlns="http://www.w3.org/2000/svg"><path d="M12 9a3 3 0 1 0 0 6 3 3 0 0 0 0-6Zm0 8a5 5 0 1 1 0-10 5 5 0 0 1 0 10Zm0-12.5C7 4.5 2.73 7.61 1 12c1.73 4.39 6 7.5 11 7.5s9.27-3.11 11-7.5c-1.73-4.39-6-7.5-11-7.5Z" fill="currentColor"/></svg><svg fill="currentColor" viewBox="0 0 24 24" id="face" xmlns="http://www.w3.org/2000/svg"><path d="M0 0h24v24H0z" fill="none"/><path d="M9 11.75a1.25 1.25 0 1 0 0 2.5 1.25 1.25 0 0 0 0-2.5zm6 0a1.25 1.25 0 1 0 0 2.5 1.25 1.25 0 0 0 0-2.5zM12 2C6.48 2 2 6.48 2 12s4.48 10 10 10 10-4.48 10-10S17.52 2 12 2zm0 18c-4.41 0-8-3.59-8-8 0-.29.02-.58.05-.86 2.36-1.05 4.23-2.98 5.21-5.37a9.974 9.974 0 0 0 10.41 3.97c.21.71.33 1.47.33 2.26 0 4.41-3.59 8-8 8z"/></svg><svg fill="none" viewBox="0 0 24 24" id="file_document" xmlns="http://www.w3.org/2000/svg"><path d="M13 9h5.5L13 3.5V9ZM6 2h8l6 6v12a2 2 0 0 1-2 2H6a2 2 0 0 1-2-2V4c0-1.11.89-2 2-2Zm9 16v-2H6v2h9Zm3-4v-2H6v2h12Z" fill="currentColor"/></svg><svg aria-hidden="true" viewBox="0 0 24 24" id="flag"><path d="M14.4 6 14 4H5v17h2v-7h5.6l.4 2h7V6z" fill="currentColor"/></svg><svg fill="none" viewBox="0 0 24 24" id="form_select" xmlns="http://www.w3.org/2000/svg"><path d="M15 5h3l-1.5 2L15 5ZM5 2h14a2 2 0 0 1 2 2v16c0 1.11-.89 2-2 2H5a2 2 0 0 1-2-2V4c0-1.1.9-2 2-2Zm0 2v4h14V4H5Zm0 16h14V10H5v10Zm2-8h10v2H7v-2Zm0 4h10v2H7v-2Z" fill="currentColor"/></svg><svg fill="none" viewBox="0 0 24 24" id="format_align_center" xmlns="http://www.w3.org/2000/svg"><path d="M3 3h18v2H3V3Zm4 4h10v2H7V7Zm-4 4h18v2H3v-2Zm4 4h10v2H7v-2Zm-4 4h18v2H3v-2Z" fill="currentColor"/></svg><svg fill="none" viewBox="0 0 24 24" id="format_align_left" xmlns="http://www.w3.org/2000/svg"><path d="M3 3h18v2H3V3Zm0 4h12v2H3V7Zm0 4h18v2H3v-2Zm0 4h12v2H3v-2Zm0 4h18v2H3v-2Z" fill="currentColor"/></svg><svg fill="none" viewBox="0 0 24 24" id="format_align_right" xmlns="http://www.w3.org/2000/svg"><path d="M3 3h18v2H3V3Zm6 4h12v2H9V7Zm-6 4h18v2H3v-2Zm6 4h12v2H9v-2Zm-6 4h18v2H3v-2Z" fill="currentColor"/></svg><svg fill="none" viewBox="0 0 24 24" id="format_bold" xmlns="http://www.w3.org/2000/svg"><path d="M13.5 15.5H10v-3h3.5a1.5 1.5 0 1 1 0 3Zm-3.5-9h3a1.5 1.5 0 0 1 0 3h-3m5.6 1.29c.97-.68 1.65-1.79 1.65-2.79 0-2.26-1.75-4-4-4H7v14h7.04c2.1 0 3.71-1.7 3.71-3.79 0-1.52-.86-2.82-2.15-3.42Z" fill="currentColor"/></svg><svg fill="none" viewBox="0 0 24 24" id="format_italic" xmlns="http://www.w3.org/2000/svg"><path d="M10 4v3h2.21l-3.42 8H6v3h8v-3h-2.21l3.42-8H18V4h-8Z" fill="currentColor"/></svg><svg fill="none" viewBox="0 0 24 24" id="format_list_bulleted" xmlns="http://www.w3.org/2000/svg"><path d="M7 5h14v2H7V5Zm0 8v-2h14v2H7ZM4 4.5a1.5 1.5 0 1 1 0 3 1.5 1.5 0 0 1 0-3Zm0 6a1.5 1.5 0 1 1 0 3 1.5 1.5 0 0 1 0-3ZM7 19v-2h14v2H7Zm-3-2.5a1.5 1.5 0 1 1 0 3 1.5 1.5 0 0 1 0-3Z" fill="currentColor"/></svg><svg fill="none" viewBox="0 0 24 24" id="format_pilcrow" xmlns="http://www.w3.org/2000/svg"><path d="M10 11a4 4 0 1 1 0-8h8v2h-2v16h-2V5h-2v16h-2V11Z" fill="currentColor"/></svg><svg fill="none" viewBox="0 0 24 24" id="format_strikethrough_variant" xmlns="http://www.w3.org/2000/svg"><path d="M23 12v2h-4.39c1 2.14.95 8-6.23 8-8.33.05-8.01-6.5-8.01-6.5l3.97.05c.03 3.37 3.16 3.37 3.78 3.33.64-.05 3.03-.04 3.22-2.38.08-1.09-1.02-1.92-2.22-2.5H1v-2h22Zm-3.59-4.11-3.98-.03s.17-2.77-3.28-2.78C8.7 5.06 9 7.28 9 7.56c.04.28.34 1.66 3 2.32H5.71S2.22 3.15 10.74 2c8.71-1.2 8.69 5.91 8.67 5.89Z" fill="currentColor"/></svg><svg fill="none" viewBox="0 0 24 24" id="fullscreen" xmlns="http://www.w3.org/2000/svg"><path d="M5 5h5v2H7v3H5V5Zm9 0h5v5h-2V7h-3V5Zm3 9h2v5h-5v-2h3v-3Zm-7 3v2H5v-5h2v3h3Z" fill="currentColor"/></svg><svg fill="none" viewBox="0 0 24 24" id="gavel" xmlns="http://www.w3.org/2000/svg"><path fill-rule="evenodd" clip-rule="evenodd" d="M11.707 9.293a1 1 0 0 1 0 1.414l-7.5 7.5a1.123 1.123 0 0 0 0 1.585c.44.44 1.146.44 1.586 0l7.5-7.5a1 1 0 0 1 1.414 1.415l-7.5 7.5a3.118 3.118 0 0 1-5.091-1.012 3.12 3.12 0 0 1 .677-3.402l7.5-7.5a1 1 0 0 1 1.414 0ZM22.707 9.293a1 1 0 0 1 0 1.414l-6 6a1 1 0 0 1-1.414-1.414l6-6a1 1 0 0 1 1.414 0ZM14.707 1.293a1 1 0 0 1 0 1.414l-6 6a1 1 0 0 1-1.414-1.414l6-6a1 1 0 0 1 1.414 0Z" fill="currentColor"/><path fill-rule="evenodd" clip-rule="evenodd" d="M8.293 6.293a1 1 0 0 1 1.414 0l8 8a1 1 0 0 1-1.414 1.414l-8-8a1 1 0 0 1 0-1.414ZM12.293 2.293a1 1 0 0 1 1.414 0l8 8a1 1 0 0 1-1.414 1.414l-8-8a1 1 0 0 1 0-1.414Z" fill="currentColor"/></svg><svg fill="none" viewBox="0 0 24 24" id="gift" xmlns="http://www.w3.org/2000/svg"><path d="M9.06 1.93C7.17 1.92 5.33 3.74 6.17 6H3a2 2 0 0 0-2 2v2a1 1 0 0 0 1 1h9V8h2v3h9a1 1 0 0 0 1-1V8a2 2 0 0 0-2-2h-3.17C19 2.73 14.6.42 12.57 3.24L12 4l-.57-.78c-.63-.89-1.5-1.28-2.37-1.29ZM9 4c.89 0 1.34 1.08.71 1.71C9.08 6.34 8 5.89 8 5a1 1 0 0 1 1-1Zm6 0c.89 0 1.34 1.08.71 1.71-.63.63-1.71.18-1.71-.71a1 1 0 0 1 1-1ZM2 12v8a2 2 0 0 0 2 2h16a2 2 0 0 0 2-2v-8h-9v8h-2v-8H2Z" fill="currentColor"/></svg><svg fill="none" viewBox="0 0 24 24" id="globe" xmlns="http://www.w3.org/2000/svg"><path fill-rule="evenodd" clip-rule="evenodd" d="M12 3a9 9 0 1 0 0 18 9 9 0 0 0 0-18ZM1 12C1 5.925 5.925 1 12 1s11 4.925 11 11-4.925 11-11 11S1 18.075 1 12Z" fill="currentColor"/><path fill-rule="evenodd" clip-rule="evenodd" d="M1 12a1 1 0 0 1 1-1h20a1 1 0 1 1 0 2H2a1 1 0 0 1-1-1Z" fill="currentColor"/><path fill-rule="evenodd" clip-rule="evenodd" d="M12 1a1 1 0 0 1 .738.326A16.3 16.3 0 0 1 17 12.02a16.3 16.3 0 0 1-4.262 10.653 1 1 0 0 1-1.476 0A16.3 16.3 0 0 1 7 11.98a16.3 16.3 0 0 1 4.262-10.653A1 1 0 0 1 12 1ZM9 12a14.3 14.3 0 0 0 3 8.45A14.3 14.3 0 0 0 15 12a14.3 14.3 0 0 0-3-8.45A14.3 14.3 0 0 0 9 12Z" fill="currentColor"/></svg><svg viewBox="0 -960 960 960" fill="currentColor" id="grid_view" xmlns="http://www.w3.org/2000/svg"><path d="M120-520v-320h320v320H120Zm0 400v-320h320v320H120Zm400-400v-320h320v320H520Zm0 400v-320h320v320H520Z"/></svg><svg fill="none" viewBox="0 0 24 24" id="history" xmlns="http://www.w3.org/2000/svg"><path d="M13.5 8H12v5l4.28 2.54.72-1.21-3.5-2.08V8ZM13 3a9 9 0 0 0-9 9H1l3.96 4.03L9 12H6a7 7 0 1 1 7 7c-1.93 0-3.68-.79-4.94-2.06l-1.42 1.42A8.896 8.896 0 0 0 13 21a9 9 0 0 0 0-18Z" fill="currentColor"/></svg><svg fill="none" viewBox="0 0 24 24" id="home" xmlns="http://www.w3.org/2000/svg"><path d="M10 20v-6h4v6h5v-8h3L12 3 2 12h3v8h5Z" fill="currentColor"/></svg><svg fill="currentColor" viewBox="0 0 24 24" id="info" xmlns="http://www.w3.org/2000/svg"><path d="M0 0h24v24H0z" fill="none"/><path d="M12 2C6.48 2 2 6.48 2 12s4.48 10 10 10 10-4.48 10-10S17.52 2 12 2zm1 15h-2v-6h2v6zm0-8h-2V7h2v2z"/></svg><svg fill="none" viewBox="0 0 24 24" id="information_outline" xmlns="http://www.w3.org/2000/svg"><path d="M11 9h2V7h-2m1 13c-4.41 0-8-3.59-8-8s3.59-8 8-8 8 3.59 8 8-3.59 8-8 8Zm0-18a10 10 0 1 0 0 20 10 10 0 0 0 0-20Zm-1 15h2v-6h-2v6Z" fill="currentColor"/></svg><svg fill="none" viewBox="0 0 24 24" id="laptop" xmlns="http://www.w3.org/2000/svg"><path d="M4 6h16v10H4m16 2a2 2 0 0 0 2-2V6a2 2 0 0 0-2-2H4c-1.11 0-2 .89-2 2v10a2 2 0 0 0 2 2H0v2h24v-2h-4Z" fill="currentColor"/></svg><svg fill="none" viewBox="0 0 24 24" id="link" xmlns="http://www.w3.org/2000/svg"><path d="M3.9 12c0-1.71 1.39-3.1 3.1-3.1h4V7H7a5 5 0 1 0 0 10h4v-1.9H7c-1.71 0-3.1-1.39-3.1-3.1ZM8 13h8v-2H8v2Zm9-6h-4v1.9h4c1.71 0 3.1 1.39 3.1 3.1 0 1.71-1.39 3.1-3.1 3.1h-4V17h4a5 5 0 1 0 0-10Z" fill="currentColor"/></svg><svg fill="currentColor" viewBox="0 0 24 24" id="lock" xmlns="http://www.w3.org/2000/svg"><path d="M0 0h24v24H0z" fill="none"/><path d="M18 8h-1V6c0-2.76-2.24-5-5-5S7 3.24 7 6v2H6c-1.1 0-2 .9-2 2v10c0 1.1.9 2 2 2h12c1.1 0 2-.9 2-2V10c0-1.1-.9-2-2-2zm-6 9c-1.1 0-2-.9-2-2s.9-2 2-2 2 .9 2 2-.9 2-2 2zm3.1-9H8.9V6c0-1.71 1.39-3.1 3.1-3.1 1.71 0 3.1 1.39 3.1 3.1v2z"/></svg><svg fill="none" viewBox="0 0 24 24" id="lock_open_outline" xmlns="http://www.w3.org/2000/svg"><path d="M18 20V10H6v10h12Zm0-12a2 2 0 0 1 2 2v10a2 2 0 0 1-2 2H6a2 2 0 0 1-2-2V10a2 2 0 0 1 2-2h9V6a3 3 0 0 0-6 0H7a5 5 0 1 1 10 0v2h1Zm-6 9a2 2 0 1 1 0-4 2 2 0 0 1 0 4Z" fill="currentColor"/></svg><svg fill="none" viewBox="0 0 24 24" id="logout_variant" xmlns="http://www.w3.org/2000/svg"><path d="M14.08 15.59 16.67 13H7v-2h9.67l-2.59-2.59L15.5 7l5 5-5 5-1.42-1.41ZM19 3a2 2 0 0 1 2 2v4.67l-2-2V5H5v14h14v-2.67l2-2V19a2 2 0 0 1-2 2H5a2 2 0 0 1-2-2V5c0-1.11.89-2 2-2h14Z" fill="currentColor"/></svg><svg fill="none" viewBox="0 0 24 24" id="magnify" xmlns="http://www.w3.org/2000/svg"><path d="M9.5 3A6.5 6.5 0 0 1 16 9.5c0 1.61-.59 3.09-1.56 4.23l.27.27h.79l5 5-1.5 1.5-5-5v-.79l-.27-.27A6.516 6.516 0 0 1 9.5 16a6.5 6.5 0 1 1 0-13Zm0 2C7 5 5 7 5 9.5S7 14 9.5 14 14 12 14 9.5 12 5 9.5 5Z" fill="currentColor"/></svg><svg fill="currentColor" viewBox="0 0 24 24" id="mail" xmlns="http://www.w3.org/2000/svg"><path d="M0 0h24v24H0z" fill="none"/><path d="M20 4H4c-1.1 0-1.99.9-1.99 2L2 18c0 1.1.9 2 2 2h16c1.1 0 2-.9 2-2V6c0-1.1-.9-2-2-2zm0 4-8 5-8-5V6l8 5 8-5v2z"/></svg><svg fill="currentColor" viewBox="0 0 24 24" id="mail_outline" xmlns="http://www.w3.org/2000/svg"><path d="M0 0h24v24H0z" fill="none"/><path d="M20 4H4c-1.1 0-1.99.9-1.99 2L2 18c0 1.1.9 2 2 2h16c1.1 0 2-.9 2-2V6c0-1.1-.9-2-2-2zm0 14H4V8l8 5 8-5v10zm-8-7L4 6h16l-8 5z"/></svg><svg fill="none" viewBox="0 0 24 24" id="menu" xmlns="http://www.w3.org/2000/svg"><path d="M3 6h18v2H3V6Zm0 5h18v2H3v-2Zm0 5h18v2H3v-2Z" fill="currentColor"/></svg><svg fill="none" viewBox="0 0 24 24" id="menu_down" xmlns="http://www.w3.org/2000/svg"><path d="m7 10 5 5 5-5H7Z" fill="currentColor"/></svg><svg fill="none" viewBox="0 0 24 24" id="menu_left" xmlns="http://www.w3.org/2000/svg"><path d="m14 7-5 5 5 5V7Z" fill="currentColor"/></svg><svg fill="none" viewBox="0 0 24 24" id="menu_open" xmlns="http://www.w3.org/2000/svg"><path d="M21 15.61 19.59 17l-5.01-5 5.01-5L21 8.39 17.44 12 21 15.61ZM3 6h13v2H3V6Zm0 7v-2h10v2H3Zm0 5v-2h13v2H3Z" fill="currentColor"/></svg><svg fill="none" viewBox="0 0 24 24" id="menu_right" xmlns="http://www.w3.org/2000/svg"><path d="m10 17 5-5-5-5v10Z" fill="currentColor"/></svg><svg fill="none" viewBox="0 0 24 24" id="menu_swap" xmlns="http://www.w3.org/2000/svg"><path d="m12 6-5 5h10l-5-5Zm-5 7 5 5 5-5H7Z" fill="currentColor"/></svg><svg fill="none" viewBox="0 0 24 24" id="menu_up" xmlns="http://www.w3.org/2000/svg"><path d="m7 15 5-5 5 5H7Z" fill="currentColor"/></svg><svg fill="currentColor" viewBox="0 0 24 24" id="message" xmlns="http://www.w3.org/2000/svg"><path d="M0 0h24v24H0z" fill="none"/><path d="M20 2H4c-1.1 0-1.99.9-1.99 2L2 22l4-4h14c1.1 0 2-.9 2-2V4c0-1.1-.9-2-2-2zM6 9h12v2H6V9zm8 5H6v-2h8v2zm4-6H6V6h12v2z"/></svg><svg fill="none" viewBox="0 0 24 24" id="microphone" xmlns="http://www.w3.org/2000/svg"><path d="M12 2a3 3 0 0 1 3 3v6a3 3 0 0 1-6 0V5a3 3 0 0 1 3-3Zm7 9c0 3.53-2.61 6.44-6 6.93V21h-2v-3.07c-3.39-.49-6-3.4-6-6.93h2a5 5 0 1 0 10 0h2Z" fill="currentColor"/></svg><svg fill="currentColor" viewBox="0 0 24 24" id="minus_circle" xmlns="http://www.w3.org/2000/svg"><path d="M0 0h24v24H0z" fill="none"/><path d="M12 2C6.48 2 2 6.48 2 12s4.48 10 10 10 10-4.48 10-10S17.52 2 12 2zm5 11H7v-2h10v2z"/></svg><svg fill="currentColor" viewBox="0 0 24 24" id="more_vert" xmlns="http://www.w3.org/2000/svg"><path d="M0 0h24v24H0z" fill="none"/><path d="M12 8c1.1 0 2-.9 2-2s-.9-2-2-2-2 .9-2 2 .9 2 2 2zm0 2c-1.1 0-2 .9-2 2s.9 2 2 2 2-.9 2-2-.9-2-2-2zm0 6c-1.1 0-2 .9-2 2s.9 2 2 2 2-.9 2-2-.9-2-2-2z"/></svg><svg fill="none" viewBox="0 0 24 24" id="newspaper_variant_outline" xmlns="http://www.w3.org/2000/svg"><path d="M20 5v14H4V5h16m0-2H4c-1.11 0-2 .89-2 2v14c0 1.11.89 2 2 2h16c1.11 0 2-.89 2-2V5c0-1.11-.89-2-2-2m-2 12H6v2h12v-2m-8-8H6v6h4V7m2 2h6V7h-6v2m6 2h-6v2h6v-2Z" fill="currentColor"/></svg><svg fill="none" viewBox="0 0 24 24" id="open_in_new" xmlns="http://www.w3.org/2000/svg"><path d="M14 3v2h3.59l-9.83 9.83 1.41 1.41L19 6.41V10h2V3m-2 16H5V5h7V3H5a2 2 0 0 0-2 2v14a2 2 0 0 0 2 2h14a2 2 0 0 0 2-2v-7h-2v7Z" fill="currentColor"/></svg><svg fill="none" viewBox="0 0 24 24" id="pause" xmlns="http://www.w3.org/2000/svg"><path d="M14 19h4V5h-4M6 19h4V5H6v14Z" fill="currentColor"/></svg><svg fill="none" viewBox="0 0 24 24" id="play" xmlns="http://www.w3.org/2000/svg"><path d="M8 5.14v14l11-7-11-7Z" fill="currentColor"/></svg><svg fill="none" viewBox="0 0 24 24" id="plus" xmlns="http://www.w3.org/2000/svg"><path d="M19 13h-6v6h-2v-6H5v-2h6V5h2v6h6v2Z" fill="currentColor"/></svg><svg fill="none" viewBox="0 0 24 24" id="plus_circle" xmlns="http://www.w3.org/2000/svg"><path d="M17 13h-4v4h-2v-4H7v-2h4V7h2v4h4m-5-9a10 10 0 1 0 0 20 10 10 0 0 0 0-20Z" fill="currentColor"/></svg><svg fill="none" viewBox="0 0 24 24" id="plus_circle_multiple_outline" xmlns="http://www.w3.org/2000/svg"><path d="M16 8h-2v3h-3v2h3v3h2v-3h3v-2h-3M2 12c0-2.79 1.64-5.2 4-6.32V3.5C2.5 4.76 0 8.09 0 12s2.5 7.24 6 8.5v-2.18C3.64 17.2 2 14.79 2 12Zm13-9c-4.96 0-9 4.04-9 9s4.04 9 9 9 9-4.04 9-9-4.04-9-9-9Zm0 16c-3.86 0-7-3.14-7-7s3.14-7 7-7 7 3.14 7 7-3.14 7-7 7Z" fill="currentColor"/></svg><svg fill="none" viewBox="0 0 24 24" id="podcast" xmlns="http://www.w3.org/2000/svg"><path d="M17 18.25v3.25H7v-3.25c0-1.38 2.24-2.5 5-2.5s5 1.12 5 2.5ZM12 5.5a6.5 6.5 0 0 1 6.5 6.5c0 1.25-.35 2.42-.96 3.41L16 14.04c.32-.61.5-1.31.5-2.04 0-2.5-2-4.5-4.5-4.5s-4.5 2-4.5 4.5c0 .73.18 1.43.5 2.04l-1.54 1.37c-.61-.99-.96-2.16-.96-3.41A6.5 6.5 0 0 1 12 5.5Zm0-4a10.5 10.5 0 0 1 8.54 16.61l-1.5-1.35a8.5 8.5 0 1 0-14.08 0l-1.5 1.35A10.5 10.5 0 0 1 12 1.5Zm0 8a2.5 2.5 0 1 1 0 5 2.5 2.5 0 0 1 0-5Z" fill="currentColor"/></svg><svg fill="none" viewBox="0 0 24 24" id="power" xmlns="http://www.w3.org/2000/svg"><path d="m16.56 5.44-1.45 1.45A5.969 5.969 0 0 1 18 12a6 6 0 1 1-12 0c0-2.17 1.16-4.06 2.88-5.12L7.44 5.44A7.961 7.961 0 0 0 4 12a8 8 0 0 0 16 0c0-2.72-1.36-5.12-3.44-6.56ZM13 3h-2v10h2" fill="currentColor"/></svg><svg fill="currentColor" viewBox="0 0 24 24" id="print" xmlns="http://www.w3.org/2000/svg"><path d="M0 0h24v24H0z" fill="none"/><path d="M19 8H5c-1.66 0-3 1.34-3 3v6h4v4h12v-4h4v-6c0-1.66-1.34-3-3-3zm-3 11H8v-5h8v5zm3-7c-.55 0-1-.45-1-1s.45-1 1-1 1 .45 1 1-.45 1-1 1zm-1-9H6v4h12V3z"/></svg><svg fill="none" viewBox="0 0 48 48" id="quote" xmlns="http://www.w3.org/2000/svg"><g fill-rule="evenodd" clip-rule="evenodd" fill="currentColor"><path d="M20.35 5.638C21.493 6.786 22 8.348 22 10v16c0 7.38-2.122 12.048-5.483 14.798C13.232 43.486 9.164 44 6 44h-.077c-.431 0-.906 0-1.3-.043-.403-.045-1.167-.172-1.787-.793-.62-.62-.748-1.383-.792-1.787C2 40.983 2 40.508 2 40.077v-4.091c0-.444 0-.925.043-1.324.043-.404.165-1.16.766-1.785.614-.638 1.38-.779 1.798-.829C5.017 32 5.505 32 5.945 32H6c.35 0 .867-.195 1.336-.664.47-.47.664-.986.664-1.336v-2c-1.651 0-3.207-.503-4.352-1.648C2.503 25.207 2 23.652 2 22V9.944c0-1.635.51-3.176 1.656-4.31C4.799 4.503 6.349 4 8 4h7.987c1.661-.02 3.219.49 4.363 1.638Zm-2.834 2.823c-.23-.231-.667-.472-1.489-.461H8c-.85 0-1.298.247-1.53.477-.23.227-.47.658-.47 1.467V22c0 .849.247 1.294.477 1.523.23.23.674.477 1.523.477h.077c.431 0 .906 0 1.3.044.403.044 1.167.171 1.787.792.62.62.748 1.384.793 1.787.043.394.043.869.043 1.3V30c0 1.65-.805 3.134-1.836 4.164C9.134 35.195 7.651 36 6 36v4c2.837 0 5.768-.485 7.984-2.298C16.122 35.952 18 32.62 18 26V10c0-.847-.249-1.303-.484-1.539ZM44.35 5.638C45.491 6.785 46 8.347 46 10v16c0 7.38-2.122 12.048-5.483 14.798C37.231 43.486 33.163 44 30 44h-.077c-.431 0-.906 0-1.3-.043-.403-.045-1.167-.172-1.787-.793-.62-.62-.748-1.383-.792-1.787-.044-.394-.044-.869-.044-1.3V34a2 2 0 0 1 2-2c1.333 0 2.082-.199 2.496-.406.35-.175.532-.388.67-.704.168-.386.278-.959.32-1.839.018-.344.023-.695.024-1.066-1.466-.091-2.83-.602-3.862-1.633C26.503 25.207 26 23.652 26 22V9.944c0-1.635.51-3.176 1.656-4.31C28.799 4.503 30.349 4 32 4h7.987c1.66-.02 3.218.49 4.362 1.638Zm-2.834 2.823c-.231-.231-.668-.472-1.489-.461H32c-.85 0-1.299.247-1.53.477-.23.227-.47.658-.47 1.467V22c0 .849.247 1.294.477 1.523.23.23.674.477 1.523.477h1.5a2 2 0 0 1 2 2c0 .287.002.586.005.888.006.793.013 1.616-.023 2.358-.05 1.041-.19 2.188-.648 3.239a5.287 5.287 0 0 1-2.549 2.687c-.678.339-1.441.562-2.285.69V40c2.837 0 5.768-.485 7.984-2.298C40.122 35.952 42 32.62 42 26V10c0-.847-.249-1.302-.484-1.539Z"/></g></svg><svg fill="none" viewBox="0 0 24 24" id="reload" xmlns="http://www.w3.org/2000/svg"><path d="M2 12a9 9 0 0 0 9 9c2.39 0 4.68-.94 6.4-2.6l-1.5-1.5A6.706 6.706 0 0 1 11 19c-6.24 0-9.36-7.54-4.95-11.95C10.46 2.64 18 5.77 18 12h-3l4 4h.1l3.9-4h-3a9 9 0 0 0-18 0Z" fill="currentColor"/></svg><svg fill="none" viewBox="0 0 24 24" id="send" xmlns="http://www.w3.org/2000/svg"><path d="m2 21 21-9L2 3v7l15 2-15 2v7Z" fill="currentColor"/></svg><svg fill="none" viewBox="0 0 24 24" id="send_clock" xmlns="http://www.w3.org/2000/svg"><path d="M2 3v7l9 2-9 2v7l7.27-3.11A7 7 0 0 0 16 23a7 7 0 1 0 0-14L2 3Zm14 8a5 5 0 1 1 0 10 5 5 0 0 1 0-10Zm-1 1.5v4l3 2 .75-1.25-2.25-1.5V12.5H15Z" fill="currentColor"/></svg><svg fill="none" viewBox="0 0 24 24" id="send_lock" xmlns="http://www.w3.org/2000/svg"><path d="M23 18v-.5a2.5 2.5 0 0 0-5 0v.5a1 1 0 0 0-1 1v4a1 1 0 0 0 1 1h5a1 1 0 0 0 1-1v-4a1 1 0 0 0-1-1Zm-1 0h-3v-.5a1.5 1.5 0 1 1 3 0v.5Zm1-6L2 21v-7l15-2-15-2V3l21 9Z" fill="currentColor"/></svg><svg fill="none" viewBox="0 0 24 24" id="special_character" xmlns="http://www.w3.org/2000/svg"><path d="M5.285 21c-.455-.093-.784-.252-.984-.477-.2-.243-.301-.467-.301-.672 0-.243.064-.45.191-.617.128-.187.301-.402.52-.645l1.368-1.43L7.61 18.42 5.285 21ZM17.62 7.093l-1.258-1.598L18.55 3c.365.075.666.215.903.42.255.187.383.412.383.673 0 .169-.055.346-.164.533-.091.187-.265.44-.52.757l-1.532 1.71ZM7.283 18.813l-.93-1.878 9.6-10.991 1.286 1.542-9.956 11.327ZM20 12.028c0 1.944-.346 3.58-1.04 4.907-.692 1.308-1.64 2.299-2.844 2.972-1.185.672-2.534 1.009-4.048 1.009-1.495 0-2.844-.346-4.047-1.038-1.204-.691-2.152-1.7-2.845-3.027-.693-1.328-1.04-2.935-1.04-4.823 0-1.944.356-3.57 1.067-4.878.712-1.328 1.66-2.328 2.845-3 1.203-.673 2.543-1.01 4.02-1.01 1.495 0 2.836.346 4.02 1.038 1.204.691 2.152 1.7 2.845 3.028C19.644 8.533 20 10.14 20 12.028Zm-2.243 0c0-2.168-.52-3.87-1.559-5.103-1.039-1.233-2.416-1.85-4.13-1.85-1.695 0-3.063.607-4.102 1.822-1.04 1.196-1.56 2.907-1.56 5.131 0 2.15.511 3.85 1.532 5.103 1.04 1.233 2.416 1.85 4.13 1.85 1.733 0 3.11-.598 4.13-1.794 1.04-1.215 1.56-2.935 1.56-5.159Z" fill="currentColor"/></svg><svg fill="none" viewBox="0 0 24 24" id="speedometer" xmlns="http://www.w3.org/2000/svg"><path d="M12 16a3 3 0 0 1-3-3c0-1.12.61-2.1 1.5-2.61l9.71-5.62-5.53 9.58c-.5.98-1.51 1.65-2.68 1.65Zm0-13c1.81 0 3.5.5 4.97 1.32l-2.1 1.21C14 5.19 13 5 12 5a8 8 0 0 0-8 8c0 2.21.89 4.21 2.34 5.65h.01c.39.39.39 1.02 0 1.41-.39.39-1.03.39-1.42.01A10 10 0 0 1 12 3Zm10 10c0 2.76-1.12 5.26-2.93 7.07-.39.38-1.02.38-1.41-.01a.996.996 0 0 1 0-1.41A7.95 7.95 0 0 0 20 13c0-1-.19-2-.54-2.9L20.67 8C21.5 9.5 22 11.18 22 13Z" fill="currentColor"/></svg><svg fill="none" viewBox="0 0 24 24" id="square_outline" xmlns="http://www.w3.org/2000/svg"><path d="M3 3h18v18H3V3Zm2 2v14h14V5H5Z" fill="currentColor"/></svg><svg viewBox="0 -960 960 960" fill="currentColor" id="stacked_email_outline" xmlns="http://www.w3.org/2000/svg"><path d="M280-280q-33 0-56.5-23.5T200-360v-400q0-33 23.5-56.5T280-840h560q33 0 56.5 23.5T920-760v400q0 33-23.5 56.5T840-280H280Zm280-188L280-663v303h560v-303L560-468Zm0-98 280-194H280l280 194ZM120-120q-33 0-56.5-23.5T40-200v-500h80v500h660v80H120Zm720-546v-94H280v94-94h560v94Z"/></svg><svg fill="currentColor" viewBox="0 0 24 24" id="star" xmlns="http://www.w3.org/2000/svg"><path d="M0 0h24v24H0z" fill="none"/><path d="M0 0h24v24H0z" fill="none"/><path d="M12 17.27 18.18 21l-1.64-7.03L22 9.24l-7.19-.61L12 2 9.19 8.63 2 9.24l5.46 4.73L5.82 21z"/></svg><svg viewBox="0 0 24 24" id="subdirectory_arrow_right" xmlns="http://www.w3.org/2000/svg"><path d="M0 0h24v24H0V0z" fill="none"/><path d="m19 15-6 6-1.42-1.42L15.17 16H4V4h2v10h9.17l-3.59-3.58L13 9l6 6z" fill="currentColor"/></svg><svg fill="none" viewBox="0 0 24 24" id="swap_horizontal" xmlns="http://www.w3.org/2000/svg"><path d="m21 9-4-4v3h-7v2h7v3M7 11l-4 4 4 4v-3h7v-2H7v-3Z" fill="currentColor"/></svg><svg fill="none" viewBox="0 0 24 24" id="swap_horizontal_circle" xmlns="http://www.w3.org/2000/svg"><path d="M22 12c0-5.5-4.5-10-10-10S2 6.5 2 12s4.5 10 10 10 10-4.5 10-10Zm-7-5.5 3.5 3.5-3.5 3.5V11h-4V9h4V6.5Zm-6 11L5.5 14 9 10.5V13h4v2H9v2.5Z" fill="currentColor"/></svg><svg fill="none" viewBox="0 0 24 24" id="table" xmlns="http://www.w3.org/2000/svg"><path d="M5 4h14a2 2 0 0 1 2 2v12a2 2 0 0 1-2 2H5a2 2 0 0 1-2-2V6a2 2 0 0 1 2-2Zm0 4v4h6V8H5Zm8 0v4h6V8h-6Zm-8 6v4h6v-4H5Zm8 0v4h6v-4h-6Z" fill="currentColor"/></svg><svg fill="none" viewBox="0 0 24 24" id="text" xmlns="http://www.w3.org/2000/svg"><path d="M21 6v2H3V6h18ZM3 18h9v-2H3v2Zm0-5h18v-2H3v2Z" fill="currentColor"/></svg><svg viewBox="0 0 24 24" id="th-large" xmlns="http://www.w3.org/2000/svg"><path fill="currentColor" d="M11.473 13.58v3.16q0 .428-.312.74-.313.313-.741.313H6.207q-.428 0-.741-.312-.313-.313-.313-.74V13.58q0-.428.313-.74.313-.313.74-.313h4.214q.428 0 .74.312.313.313.313.741zm0-6.32v3.16q0 .428-.312.74-.313.313-.741.313H6.207q-.428 0-.741-.312-.313-.313-.313-.741V7.26q0-.428.313-.74.313-.313.74-.313h4.214q.428 0 .74.312.313.313.313.74zm7.374 6.32v3.16q0 .428-.313.74-.313.313-.74.313H13.58q-.428 0-.74-.312-.313-.313-.313-.74V13.58q0-.428.312-.74.313-.313.741-.313h4.213q.428 0 .741.312.313.313.313.741zm0-6.32v3.16q0 .428-.313.74-.313.313-.74.313H13.58q-.428 0-.74-.312-.313-.313-.313-.741V7.26q0-.428.312-.74.313-.313.741-.313h4.213q.428 0 .741.312.313.313.313.74z"/></svg><svg viewBox="0 0 24 24" id="th-list" xmlns="http://www.w3.org/2000/svg"><path fill="currentColor" d="M8.68 15.596v1.66q0 .345-.241.587-.242.242-.588.242H5.085q-.346 0-.588-.242t-.242-.587v-1.66q0-.346.242-.588t.588-.242H7.85q.346 0 .588.242t.242.588zm0-4.426v1.66q0 .346-.241.588-.242.242-.588.242H5.085q-.346 0-.588-.242t-.242-.588v-1.66q0-.346.242-.588t.588-.242H7.85q.346 0 .588.242t.242.588zm11.065 4.426v1.66q0 .345-.242.587t-.588.242h-8.298q-.346 0-.588-.242t-.242-.587v-1.66q0-.346.242-.588t.588-.242h8.298q.346 0 .588.242t.242.588zM8.681 6.744v1.66q0 .346-.242.588t-.588.242H5.085q-.346 0-.588-.242t-.242-.588v-1.66q0-.345.242-.587t.588-.242H7.85q.346 0 .588.242t.242.587zm11.064 4.426v1.66q0 .346-.242.588t-.588.242h-8.298q-.346 0-.588-.242t-.242-.588v-1.66q0-.346.242-.588t.588-.242h8.298q.346 0 .588.242t.242.588zm0-4.426v1.66q0 .346-.242.588t-.588.242h-8.298q-.346 0-.588-.242t-.242-.588v-1.66q0-.345.242-.587t.588-.242h8.298q.346 0 .588.242t.242.587z"/></svg><svg fill="none" viewBox="0 0 24 24" id="tune_vertical_variant" xmlns="http://www.w3.org/2000/svg"><path d="M8 12.14V2H6v10.14c-1.72.45-3 2-3 3.86 0 1.86 1.28 3.41 3 3.86V22h2v-2.14c1.72-.45 3-2 3-3.86 0-1.86-1.28-3.41-3-3.86ZM7 14c1.1 0 2 .9 2 2s-.9 2-2 2-2-.9-2-2 .9-2 2-2ZM18 2h-2v2.14c-1.72.45-3 2-3 3.86 0 1.86 1.28 3.41 3 3.86V22h2V11.86c1.72-.45 3-2 3-3.86 0-1.86-1.28-3.41-3-3.86V2Zm-1 4c1.1 0 2 .9 2 2s-.9 2-2 2-2-.9-2-2 .9-2 2-2Z" fill="currentColor"/></svg><svg fill="none" viewBox="0 0 24 24" id="upload" xmlns="http://www.w3.org/2000/svg"><path d="M9 16v-6H5l7-7 7 7h-4v6H9Zm-4 4v-2h14v2H5Z" fill="currentColor"/></svg><svg fill="none" viewBox="0 0 24 24" id="user" xmlns="http://www.w3.org/2000/svg"><path fill-rule="evenodd" clip-rule="evenodd" d="M5.464 15.464A5 5 0 0 1 9 14h6a5 5 0 0 1 5 5v2a1 1 0 1 1-2 0v-2a3 3 0 0 0-3-3H9a3 3 0 0 0-3 3v2a1 1 0 1 1-2 0v-2a5 5 0 0 1 1.464-3.536ZM12 4a3 3 0 1 0 0 6 3 3 0 0 0 0-6ZM7 7a5 5 0 1 1 10 0A5 5 0 0 1 7 7Z" fill="currentColor"/></svg><svg viewBox="0 -960 960 960" fill="currentColor" id="user_filled" xmlns="http://www.w3.org/2000/svg"><path d="M480-480q-66 0-113-47t-47-113q0-66 47-113t113-47q66 0 113 47t47 113q0 66-47 113t-113 47ZM160-160v-112q0-34 17.5-62.5T224-378q62-31 126-46.5T480-440q66 0 130 15.5T736-378q29 15 46.5 43.5T800-272v112H160Z"/></svg><svg fill="none" viewBox="0 0 24 24" id="video" xmlns="http://www.w3.org/2000/svg"><path d="M17 10.5V7a1 1 0 0 0-1-1H4a1 1 0 0 0-1 1v10a1 1 0 0 0 1 1h12a1 1 0 0 0 1-1v-3.5l4 4v-11l-4 4Z" fill="currentColor"/></svg><svg fill="none" viewBox="0 0 24 24" id="view_dashboard_variant_outline" xmlns="http://www.w3.org/2000/svg"><path d="M2 5v14h20V5H2Zm18 7h-4V7h4v5Zm-6-2h-4V7h4v3Zm-4 2h4v5h-4v-5ZM4 7h4v10H4V7Zm12 10v-3h4v3h-4Z" fill="currentColor"/></svg><svg fill="currentColor" viewBox="0 0 24 24" id="visibility_off" xmlns="http://www.w3.org/2000/svg"><path d="M0 0h24v24H0zm0 0h24v24H0zm0 0h24v24H0zm0 0h24v24H0z" fill="none"/><path d="M12 7c2.76 0 5 2.24 5 5 0 .65-.13 1.26-.36 1.83l2.92 2.92c1.51-1.26 2.7-2.89 3.43-4.75-1.73-4.39-6-7.5-11-7.5-1.4 0-2.74.25-3.98.7l2.16 2.16C10.74 7.13 11.35 7 12 7zM2 4.27l2.28 2.28.46.46A11.804 11.804 0 0 0 1 12c1.73 4.39 6 7.5 11 7.5 1.55 0 3.03-.3 4.38-.84l.42.42L19.73 22 21 20.73 3.27 3 2 4.27zM7.53 9.8l1.55 1.55c-.05.21-.08.43-.08.65 0 1.66 1.34 3 3 3 .22 0 .44-.03.65-.08l1.55 1.55c-.67.33-1.41.53-2.2.53-2.76 0-5-2.24-5-5 0-.79.2-1.53.53-2.2zm4.31-.78 3.15 3.15.02-.16c0-1.66-1.34-3-3-3l-.17.01z"/></svg><svg fill="none" viewBox="0 0 24 24" id="volume_medium" xmlns="http://www.w3.org/2000/svg"><path d="M5 9v6h4l5 5V4L9 9m9.5 3c0-1.77-1-3.29-2.5-4.03V16c1.5-.71 2.5-2.24 2.5-4Z" fill="currentColor"/></svg><svg fill="none" viewBox="0 0 24 24" id="xml" xmlns="http://www.w3.org/2000/svg"><path d="m12.89 3 1.96.4L11.11 21l-1.96-.4L12.89 3Zm6.7 9L16 8.41V5.58L22.42 12 16 18.41v-2.83L19.59 12ZM1.58 12 8 5.58v2.83L4.41 12 8 15.58v2.83L1.58 12Z" fill="currentColor"/></svg></defs></svg>