<?xml version="1.0" encoding="utf-8"?><svg xmlns="http://www.w3.org/2000/svg" xmlns:xlink="http://www.w3.org/1999/xlink"><defs><svg fill="none" viewBox="0 0 24 24" id="account" xmlns="http://www.w3.org/2000/svg"><path d="M12 4a4 4 0 110 8 4 4 0 010-8zm0 10c4.42 0 8 1.79 8 4v2H4v-2c0-2.21 3.58-4 8-4z" fill="currentColor"/></svg><svg fill="none" viewBox="0 0 24 24" id="alert" xmlns="http://www.w3.org/2000/svg"><path d="M13 14h-2V9h2m0 9h-2v-2h2M1 21h22L12 2 1 21z" fill="currentColor"/></svg><svg fill="none" viewBox="0 0 24 24" id="archive" xmlns="http://www.w3.org/2000/svg"><path d="M3 3h18v4H3V3zm1 5h16v13H4V8zm5.5 3a.5.5 0 00-.5.5V13h6v-1.5a.5.5 0 00-.5-.5h-5z" fill="currentColor"/></svg><svg fill="none" viewBox="0 0 24 24" id="arrow_down" xmlns="http://www.w3.org/2000/svg"><path d="M11 4h2v12l5.5-5.5 1.42 1.42L12 19.84l-7.92-7.92L5.5 10.5 11 16V4z" fill="currentColor"/></svg><svg fill="none" viewBox="0 0 24 24" id="arrow_left" xmlns="http://www.w3.org/2000/svg"><path d="M20 11v2H8l5.5 5.5-1.42 1.42L4.16 12l7.92-7.92L13.5 5.5 8 11h12z" fill="currentColor"/></svg><svg fill="none" viewBox="0 0 24 24" id="arrow_right" xmlns="http://www.w3.org/2000/svg"><path d="M4 11v2h12l-5.5 5.5 1.42 1.42L19.84 12l-7.92-7.92L10.5 5.5 16 11H4z" fill="currentColor"/></svg><svg fill="none" viewBox="0 0 24 24" id="arrow_split_vertical" xmlns="http://www.w3.org/2000/svg"><path d="M18 16v-3h-3v9h-2V2h2v9h3V8l4 4-4 4zM2 12l4 4v-3h3v9h2V2H9v9H6V8l-4 4z" fill="currentColor"/></svg><svg fill="none" viewBox="0 0 24 24" id="arrow_u_left_top" xmlns="http://www.w3.org/2000/svg"><path d="M20 13.5a6.5 6.5 0 01-6.5 6.5H6v-2h7.5c2.5 0 4.5-2 4.5-4.5S16 9 13.5 9H7.83l3.08 3.09L9.5 13.5 4 8l5.5-5.5 1.42 1.41L7.83 7h5.67a6.5 6.5 0 016.5 6.5z" fill="currentColor"/></svg><svg fill="none" viewBox="0 0 24 24" id="arrow_u_right_top" xmlns="http://www.w3.org/2000/svg"><path d="M10.5 18H18v2h-7.5a6.5 6.5 0 110-13h5.67l-3.09-3.09L14.5 2.5 20 8l-5.5 5.5-1.41-1.41L16.17 9H10.5C8 9 6 11 6 13.5S8 18 10.5 18z" fill="currentColor"/></svg><svg fill="none" viewBox="0 0 24 24" id="arrow_up" xmlns="http://www.w3.org/2000/svg"><path d="M13 20h-2V8l-5.5 5.5-1.42-1.42L12 4.16l7.92 7.92-1.42 1.42L13 8v12z" fill="currentColor"/></svg><svg fill="none" viewBox="0 0 24 24" id="arrow_up_down" xmlns="http://www.w3.org/2000/svg"><path d="M17.45 17.55L12 23l-5.45-5.45 1.41-1.41L11 19.17V4.83L7.96 7.86 6.55 6.45 12 1l5.45 5.45-1.41 1.41L13 4.83v14.34l3.04-3.03 1.41 1.41z" fill="currentColor"/></svg><svg fill="none" viewBox="0 0 24 24" id="button_pointer" xmlns="http://www.w3.org/2000/svg"><path d="M20 20.5c0 .8-.7 1.5-1.5 1.5H13c-.4 0-.7-.1-1-.4l-4-4.2.7-.8c.2-.2.5-.3.8-.3h.2L12 18V9c0-.6.4-1 1-1s1 .4 1 1v4.5l1.2.1 3.9 2.2c.5.2.9.8.9 1.3v3.4zM20 2H4c-1.1 0-2 .9-2 2v8c0 1.1.9 2 2 2h4v-2H4V4h16v8h-2v2h2c1.1 0 2-.9 2-2V4c0-1.1-.9-2-2-2z" fill="currentColor"/></svg><svg fill="none" viewBox="0 0 24 24" id="calendar_range" xmlns="http://www.w3.org/2000/svg"><path d="M9 10H7v2h2v-2zm4 0h-2v2h2v-2zm4 0h-2v2h2v-2zm2-7h-1V1h-2v2H8V1H6v2H5a2 2 0 00-2 2v14a2 2 0 002 2h14a2 2 0 002-2V5a2 2 0 00-2-2zm0 16H5V8h14v11z" fill="currentColor"/></svg><svg fill="currentColor" viewBox="0 0 24 24" id="camera_alt" xmlns="http://www.w3.org/2000/svg"><path d="M0 0h24v24H0z" fill="none"/><circle cx="12" cy="12" r="3.2"/><path d="M9 2L7.17 4H4c-1.1 0-2 .9-2 2v12c0 1.1.9 2 2 2h16c1.1 0 2-.9 2-2V6c0-1.1-.9-2-2-2h-3.17L15 2H9zm3 15c-2.76 0-5-2.24-5-5s2.24-5 5-5 5 2.24 5 5-2.24 5-5 5z"/></svg><svg fill="none" viewBox="0 0 24 24" id="cart" xmlns="http://www.w3.org/2000/svg"><path d="M17 18c-1.11 0-2 .89-2 2a2 2 0 102-2zM1 2v2h2l3.6 7.59-1.36 2.45c-.15.28-.24.61-.24.96a2 2 0 002 2h12v-2H7.42a.25.25 0 01-.25-.25c0-.05.01-.09.03-.12L8.1 13h7.45c.75 0 1.41-.42 1.75-1.03l3.58-6.47c.07-.16.12-.33.12-.5a1 1 0 00-1-1H5.21l-.94-2M7 18c-1.11 0-2 .89-2 2a2 2 0 102-2z" fill="currentColor"/></svg><svg fill="none" viewBox="0 0 24 24" id="cellphone_text" xmlns="http://www.w3.org/2000/svg"><path d="M17 19V5H7v14h10zm0-18a2 2 0 012 2v18a2 2 0 01-2 2H7a2 2 0 01-2-2V3c0-1.11.89-2 2-2h10zM9 7h6v2H9V7zm0 4h4v2H9v-2z" fill="currentColor"/></svg><svg fill="none" viewBox="0 0 24 24" id="check" xmlns="http://www.w3.org/2000/svg"><path d="M21 7L9 19l-5.5-5.5 1.41-1.41L9 16.17 19.59 5.59 21 7z" fill="currentColor"/></svg><svg fill="none" viewBox="0 0 24 24" id="check_circle_outline" xmlns="http://www.w3.org/2000/svg"><path d="M12 2C6.5 2 2 6.5 2 12s4.5 10 10 10 10-4.5 10-10S17.5 2 12 2zm0 18c-4.41 0-8-3.59-8-8s3.59-8 8-8 8 3.59 8 8-3.59 8-8 8zm4.59-12.42L10 14.17l-2.59-2.58L6 13l4 4 8-8-1.41-1.42z" fill="currentColor"/></svg><svg fill="none" viewBox="0 0 24 24" id="checkbox_blank_circle_outline" xmlns="http://www.w3.org/2000/svg"><path d="M12 20a8 8 0 110-16 8 8 0 010 16zm0-18a10 10 0 100 20 10 10 0 000-20z" fill="currentColor"/></svg><svg fill="none" viewBox="0 0 24 24" id="checkbox_marked" xmlns="http://www.w3.org/2000/svg"><path d="M10 17l-5-5 1.41-1.42L10 14.17l7.59-7.59L19 8m0-5H5c-1.11 0-2 .89-2 2v14a2 2 0 002 2h14a2 2 0 002-2V5a2 2 0 00-2-2z" fill="currentColor"/></svg><svg fill="none" viewBox="0 0 24 24" id="chevron_double_left" xmlns="http://www.w3.org/2000/svg"><path d="M18.41 7.41L17 6l-6 6 6 6 1.41-1.41L13.83 12l4.58-4.59zm-6 0L11 6l-6 6 6 6 1.41-1.41L7.83 12l4.58-4.59z" fill="currentColor"/></svg><svg fill="none" viewBox="0 0 24 24" id="chevron_double_right" xmlns="http://www.w3.org/2000/svg"><path d="M5.59 7.41L7 6l6 6-6 6-1.41-1.41L10.17 12 5.59 7.41zm6 0L13 6l6 6-6 6-1.41-1.41L16.17 12l-4.58-4.59z" fill="currentColor"/></svg><svg fill="none" viewBox="0 0 24 24" id="chevron_down" xmlns="http://www.w3.org/2000/svg"><path d="M7.41 8.58L12 13.17l4.59-4.59L18 10l-6 6-6-6 1.41-1.42z" fill="currentColor"/></svg><svg fill="none" viewBox="0 0 24 24" id="chevron_left" xmlns="http://www.w3.org/2000/svg"><path d="M15.41 16.58L10.83 12l4.58-4.59L14 6l-6 6 6 6 1.41-1.42z" fill="currentColor"/></svg><svg fill="none" viewBox="0 0 24 24" id="chevron_right" xmlns="http://www.w3.org/2000/svg"><path d="M8.59 16.58L13.17 12 8.59 7.41 10 6l6 6-6 6-1.41-1.42z" fill="currentColor"/></svg><svg fill="none" viewBox="0 0 24 24" id="chevron_up" xmlns="http://www.w3.org/2000/svg"><path d="M7.41 15.41L12 10.83l4.59 4.58L18 14l-6-6-6 6 1.41 1.41z" fill="currentColor"/></svg><svg fill="none" viewBox="0 0 24 24" id="close" xmlns="http://www.w3.org/2000/svg"><path d="M19 6.41L17.59 5 12 10.59 6.41 5 5 6.41 10.59 12 5 17.59 6.41 19 12 13.41 17.59 19 19 17.59 13.41 12 19 6.41z" fill="currentColor"/></svg><svg fill="none" viewBox="0 0 24 24" id="cog" xmlns="http://www.w3.org/2000/svg"><path d="M12 15.5a3.5 3.5 0 110-7 3.5 3.5 0 010 7zm7.43-2.53c.04-.32.07-.64.07-.97 0-.33-.03-.66-.07-1l2.11-1.63c.19-.15.24-.42.12-.64l-2-3.46c-.12-.22-.39-.31-.61-.22l-2.49 1c-.52-.39-1.06-.73-1.69-.98l-.37-2.65A.506.506 0 0014 2h-4c-.25 0-.46.18-.5.42l-.37 2.65c-.63.25-1.17.59-1.69.98l-2.49-1c-.22-.09-.49 0-.61.22l-2 3.46c-.13.22-.07.49.12.64L4.57 11c-.04.34-.07.67-.07 1 0 .33.03.65.07.97l-2.11 1.66c-.19.15-.25.42-.12.64l2 3.46c.12.22.39.3.61.22l2.49-1.01c.52.4 1.06.74 1.69.99l.37 2.65c.04.24.25.42.5.42h4c.25 0 .46-.18.5-.42l.37-2.65c.63-.26 1.17-.59 1.69-.99l2.49 1.01c.22.08.49 0 .61-.22l2-3.46c.12-.22.07-.49-.12-.64l-2.11-1.66z" fill="currentColor"/></svg><svg fill="none" viewBox="0 0 24 24" id="content_copy" xmlns="http://www.w3.org/2000/svg"><path d="M19 21H8V7h11m0-2H8a2 2 0 00-2 2v14a2 2 0 002 2h11a2 2 0 002-2V7a2 2 0 00-2-2zm-3-4H4a2 2 0 00-2 2v14h2V3h12V1z" fill="currentColor"/></svg><svg fill="currentColor" viewBox="0 0 24 24" id="crop" xmlns="http://www.w3.org/2000/svg"><path d="M0 0h24v24H0z" fill="none"/><path d="M17 15h2V7c0-1.1-.9-2-2-2H9v2h8v8zM7 17V1H5v4H1v2h4v10c0 1.1.9 2 2 2h10v4h2v-4h4v-2H7z"/></svg><svg fill="none" viewBox="0 0 24 24" id="delete" xmlns="http://www.w3.org/2000/svg"><path d="M19 4h-3.5l-1-1h-5l-1 1H5v2h14M6 19a2 2 0 002 2h8a2 2 0 002-2V7H6v12z" fill="currentColor"/></svg><svg fill="none" viewBox="0 0 24 24" id="dots_vertical" xmlns="http://www.w3.org/2000/svg"><path d="M12 16a2 2 0 110 4 2 2 0 010-4zm0-6a2 2 0 110 4 2 2 0 010-4zm0-6a2 2 0 110 4 2 2 0 010-4z" fill="currentColor"/></svg><svg fill="none" viewBox="0 0 24 24" id="download" xmlns="http://www.w3.org/2000/svg"><path d="M5 20h14v-2H5m14-9h-4V3H9v6H5l7 7 7-7z" fill="currentColor"/></svg><svg fill="none" viewBox="0 0 24 24" id="drag" xmlns="http://www.w3.org/2000/svg"><path d="M7 19v-2h2v2H7zm4 0v-2h2v2h-2zm4 0v-2h2v2h-2zm-8-4v-2h2v2H7zm4 0v-2h2v2h-2zm4 0v-2h2v2h-2zm-8-4V9h2v2H7zm4 0V9h2v2h-2zm4 0V9h2v2h-2zM7 7V5h2v2H7zm4 0V5h2v2h-2zm4 0V5h2v2h-2z" fill="currentColor"/></svg><svg fill="none" viewBox="0 0 24 24" id="drag_alternative" xmlns="http://www.w3.org/2000/svg"><path d="M11 18c0 1.1-.9 2-2 2s-2-.9-2-2 .9-2 2-2 2 .9 2 2zm-2-8c-1.1 0-2 .9-2 2s.9 2 2 2 2-.9 2-2-.9-2-2-2zm0-6c-1.1 0-2 .9-2 2s.9 2 2 2 2-.9 2-2-.9-2-2-2zm6 4c1.1 0 2-.9 2-2s-.9-2-2-2-2 .9-2 2 .9 2 2 2zm0 2c-1.1 0-2 .9-2 2s.9 2 2 2 2-.9 2-2-.9-2-2-2zm0 6c-1.1 0-2 .9-2 2s.9 2 2 2 2-.9 2-2-.9-2-2-2z" fill="currentColor"/></svg><svg fill="none" viewBox="0 0 24 24" id="edit" xmlns="http://www.w3.org/2000/svg"><path d="M20.71 7.04c.39-.39.39-1.04 0-1.41l-2.34-2.34c-.37-.39-1.02-.39-1.41 0l-1.84 1.83 3.75 3.75M3 17.25V21h3.75L17.81 9.93l-3.75-3.75L3 17.25z" fill="currentColor"/></svg><svg fill="none" viewBox="0 0 24 24" id="edit_box" xmlns="http://www.w3.org/2000/svg"><path d="M19 3a2 2 0 012 2v14a2 2 0 01-2 2H5a2 2 0 01-2-2V5a2 2 0 012-2h14zm-2.3 6.35c.22-.21.22-.56 0-.77L15.42 7.3a.532.532 0 00-.77 0l-1 1 2.05 2.05 1-1zM7 14.94V17h2.06l6.06-6.06-2.06-2.06L7 14.94z" fill="currentColor"/></svg><svg fill="none" viewBox="0 0 24 24" id="eye" xmlns="http://www.w3.org/2000/svg"><path d="M12 9a3 3 0 100 6 3 3 0 000-6zm0 8a5 5 0 110-10 5 5 0 010 10zm0-12.5C7 4.5 2.73 7.61 1 12c1.73 4.39 6 7.5 11 7.5s9.27-3.11 11-7.5c-1.73-4.39-6-7.5-11-7.5z" fill="currentColor"/></svg><svg fill="currentColor" viewBox="0 0 24 24" id="face" xmlns="http://www.w3.org/2000/svg"><path d="M0 0h24v24H0z" fill="none"/><path d="M9 11.75a1.25 1.25 0 100 2.5 1.25 1.25 0 000-2.5zm6 0a1.25 1.25 0 100 2.5 1.25 1.25 0 000-2.5zM12 2C6.48 2 2 6.48 2 12s4.48 10 10 10 10-4.48 10-10S17.52 2 12 2zm0 18c-4.41 0-8-3.59-8-8 0-.29.02-.58.05-.86 2.36-1.05 4.23-2.98 5.21-5.37a9.974 9.974 0 0010.41 3.97c.21.71.33 1.47.33 2.26 0 4.41-3.59 8-8 8z"/></svg><svg fill="none" viewBox="0 0 24 24" id="file_document" xmlns="http://www.w3.org/2000/svg"><path d="M13 9h5.5L13 3.5V9zM6 2h8l6 6v12a2 2 0 01-2 2H6a2 2 0 01-2-2V4c0-1.11.89-2 2-2zm9 16v-2H6v2h9zm3-4v-2H6v2h12z" fill="currentColor"/></svg><svg fill="none" viewBox="0 0 24 24" id="format_align_center" xmlns="http://www.w3.org/2000/svg"><path d="M3 3h18v2H3V3zm4 4h10v2H7V7zm-4 4h18v2H3v-2zm4 4h10v2H7v-2zm-4 4h18v2H3v-2z" fill="currentColor"/></svg><svg fill="none" viewBox="0 0 24 24" id="format_align_left" xmlns="http://www.w3.org/2000/svg"><path d="M3 3h18v2H3V3zm0 4h12v2H3V7zm0 4h18v2H3v-2zm0 4h12v2H3v-2zm0 4h18v2H3v-2z" fill="currentColor"/></svg><svg fill="none" viewBox="0 0 24 24" id="format_align_right" xmlns="http://www.w3.org/2000/svg"><path d="M3 3h18v2H3V3zm6 4h12v2H9V7zm-6 4h18v2H3v-2zm6 4h12v2H9v-2zm-6 4h18v2H3v-2z" fill="currentColor"/></svg><svg fill="none" viewBox="0 0 24 24" id="format_bold" xmlns="http://www.w3.org/2000/svg"><path d="M13.5 15.5H10v-3h3.5a1.5 1.5 0 110 3zm-3.5-9h3a1.5 1.5 0 010 3h-3m5.6 1.29c.97-.68 1.65-1.79 1.65-2.79 0-2.26-1.75-4-4-4H7v14h7.04c2.1 0 3.71-1.7 3.71-3.79 0-1.52-.86-2.82-2.15-3.42z" fill="currentColor"/></svg><svg fill="none" viewBox="0 0 24 24" id="format_italic" xmlns="http://www.w3.org/2000/svg"><path d="M10 4v3h2.21l-3.42 8H6v3h8v-3h-2.21l3.42-8H18V4h-8z" fill="currentColor"/></svg><svg fill="none" viewBox="0 0 24 24" id="format_list_bulleted" xmlns="http://www.w3.org/2000/svg"><path d="M7 5h14v2H7V5zm0 8v-2h14v2H7zM4 4.5a1.5 1.5 0 110 3 1.5 1.5 0 010-3zm0 6a1.5 1.5 0 110 3 1.5 1.5 0 010-3zM7 19v-2h14v2H7zm-3-2.5a1.5 1.5 0 110 3 1.5 1.5 0 010-3z" fill="currentColor"/></svg><svg fill="none" viewBox="0 0 24 24" id="format_pilcrow" xmlns="http://www.w3.org/2000/svg"><path d="M10 11a4 4 0 110-8h8v2h-2v16h-2V5h-2v16h-2V11z" fill="currentColor"/></svg><svg fill="none" viewBox="0 0 24 24" id="format_strikethrough_variant" xmlns="http://www.w3.org/2000/svg"><path d="M23 12v2h-4.39c1 2.14.95 8-6.23 8-8.33.05-8.01-6.5-8.01-6.5l3.97.05c.03 3.37 3.16 3.37 3.78 3.33.64-.05 3.03-.04 3.22-2.38.08-1.09-1.02-1.92-2.22-2.5H1v-2h22zm-3.59-4.11l-3.98-.03s.17-2.77-3.28-2.78C8.7 5.06 9 7.28 9 7.56c.04.28.34 1.66 3 2.32H5.71S2.22 3.15 10.74 2c8.71-1.2 8.69 5.91 8.67 5.89z" fill="currentColor"/></svg><svg fill="none" viewBox="0 0 24 24" id="fullscreen" xmlns="http://www.w3.org/2000/svg"><path d="M5 5h5v2H7v3H5V5zm9 0h5v5h-2V7h-3V5zm3 9h2v5h-5v-2h3v-3zm-7 3v2H5v-5h2v3h3z" fill="currentColor"/></svg><svg fill="none" viewBox="0 0 24 24" id="gavel" xmlns="http://www.w3.org/2000/svg"><path fill-rule="evenodd" clip-rule="evenodd" d="M11.707 9.293a1 1 0 010 1.414l-7.5 7.5a1.123 1.123 0 000 1.585c.44.44 1.146.44 1.586 0l7.5-7.5a1 1 0 011.414 1.415l-7.5 7.5a3.118 3.118 0 01-5.091-1.012 3.12 3.12 0 01.677-3.402l7.5-7.5a1 1 0 011.414 0zM22.707 9.293a1 1 0 010 1.414l-6 6a1 1 0 01-1.414-1.414l6-6a1 1 0 011.414 0zM14.707 1.293a1 1 0 010 1.414l-6 6a1 1 0 01-1.414-1.414l6-6a1 1 0 011.414 0z" fill="currentColor"/><path fill-rule="evenodd" clip-rule="evenodd" d="M8.293 6.293a1 1 0 011.414 0l8 8a1 1 0 01-1.414 1.414l-8-8a1 1 0 010-1.414zM12.293 2.293a1 1 0 011.414 0l8 8a1 1 0 01-1.414 1.414l-8-8a1 1 0 010-1.414z" fill="currentColor"/></svg><svg fill="none" viewBox="0 0 24 24" id="gift" xmlns="http://www.w3.org/2000/svg"><path d="M9.06 1.93C7.17 1.92 5.33 3.74 6.17 6H3a2 2 0 00-2 2v2a1 1 0 001 1h9V8h2v3h9a1 1 0 001-1V8a2 2 0 00-2-2h-3.17C19 2.73 14.6.42 12.57 3.24L12 4l-.57-.78c-.63-.89-1.5-1.28-2.37-1.29zM9 4c.89 0 1.34 1.08.71 1.71C9.08 6.34 8 5.89 8 5a1 1 0 011-1zm6 0c.89 0 1.34 1.08.71 1.71-.63.63-1.71.18-1.71-.71a1 1 0 011-1zM2 12v8a2 2 0 002 2h16a2 2 0 002-2v-8h-9v8h-2v-8H2z" fill="currentColor"/></svg><svg fill="none" viewBox="0 0 24 24" id="globe" xmlns="http://www.w3.org/2000/svg"><path fill-rule="evenodd" clip-rule="evenodd" d="M12 3a9 9 0 100 18 9 9 0 000-18zM1 12C1 5.925 5.925 1 12 1s11 4.925 11 11-4.925 11-11 11S1 18.075 1 12z" fill="currentColor"/><path fill-rule="evenodd" clip-rule="evenodd" d="M1 12a1 1 0 011-1h20a1 1 0 110 2H2a1 1 0 01-1-1z" fill="currentColor"/><path fill-rule="evenodd" clip-rule="evenodd" d="M12 1a1 1 0 01.738.326A16.3 16.3 0 0117 12.02a16.3 16.3 0 01-4.262 10.653 1 1 0 01-1.476 0A16.3 16.3 0 017 11.98a16.3 16.3 0 014.262-10.653A1 1 0 0112 1zM9 12a14.3 14.3 0 003 8.45A14.3 14.3 0 0015 12a14.3 14.3 0 00-3-8.45A14.3 14.3 0 009 12z" fill="currentColor"/></svg><svg fill="none" viewBox="0 0 24 24" id="home" xmlns="http://www.w3.org/2000/svg"><path d="M10 20v-6h4v6h5v-8h3L12 3 2 12h3v8h5z" fill="currentColor"/></svg><svg fill="currentColor" viewBox="0 0 24 24" id="info" xmlns="http://www.w3.org/2000/svg"><path d="M0 0h24v24H0z" fill="none"/><path d="M12 2C6.48 2 2 6.48 2 12s4.48 10 10 10 10-4.48 10-10S17.52 2 12 2zm1 15h-2v-6h2v6zm0-8h-2V7h2v2z"/></svg><svg fill="none" viewBox="0 0 24 24" id="information_outline" xmlns="http://www.w3.org/2000/svg"><path d="M11 9h2V7h-2m1 13c-4.41 0-8-3.59-8-8s3.59-8 8-8 8 3.59 8 8-3.59 8-8 8zm0-18a10 10 0 100 20 10 10 0 000-20zm-1 15h2v-6h-2v6z" fill="currentColor"/></svg><svg fill="none" viewBox="0 0 24 24" id="laptop" xmlns="http://www.w3.org/2000/svg"><path d="M4 6h16v10H4m16 2a2 2 0 002-2V6a2 2 0 00-2-2H4c-1.11 0-2 .89-2 2v10a2 2 0 002 2H0v2h24v-2h-4z" fill="currentColor"/></svg><svg fill="none" viewBox="0 0 24 24" id="link" xmlns="http://www.w3.org/2000/svg"><path d="M3.9 12c0-1.71 1.39-3.1 3.1-3.1h4V7H7a5 5 0 100 10h4v-1.9H7c-1.71 0-3.1-1.39-3.1-3.1zM8 13h8v-2H8v2zm9-6h-4v1.9h4c1.71 0 3.1 1.39 3.1 3.1 0 1.71-1.39 3.1-3.1 3.1h-4V17h4a5 5 0 100-10z" fill="currentColor"/></svg><svg fill="currentColor" viewBox="0 0 24 24" id="lock" xmlns="http://www.w3.org/2000/svg"><path d="M0 0h24v24H0z" fill="none"/><path d="M18 8h-1V6c0-2.76-2.24-5-5-5S7 3.24 7 6v2H6c-1.1 0-2 .9-2 2v10c0 1.1.9 2 2 2h12c1.1 0 2-.9 2-2V10c0-1.1-.9-2-2-2zm-6 9c-1.1 0-2-.9-2-2s.9-2 2-2 2 .9 2 2-.9 2-2 2zm3.1-9H8.9V6c0-1.71 1.39-3.1 3.1-3.1 1.71 0 3.1 1.39 3.1 3.1v2z"/></svg><svg fill="none" viewBox="0 0 24 24" id="logout_variant" xmlns="http://www.w3.org/2000/svg"><path d="M14.08 15.59L16.67 13H7v-2h9.67l-2.59-2.59L15.5 7l5 5-5 5-1.42-1.41zM19 3a2 2 0 012 2v4.67l-2-2V5H5v14h14v-2.67l2-2V19a2 2 0 01-2 2H5a2 2 0 01-2-2V5c0-1.11.89-2 2-2h14z" fill="currentColor"/></svg><svg fill="none" viewBox="0 0 24 24" id="magnify" xmlns="http://www.w3.org/2000/svg"><path d="M9.5 3A6.5 6.5 0 0116 9.5c0 1.61-.59 3.09-1.56 4.23l.27.27h.79l5 5-1.5 1.5-5-5v-.79l-.27-.27A6.516 6.516 0 019.5 16a6.5 6.5 0 110-13zm0 2C7 5 5 7 5 9.5S7 14 9.5 14 14 12 14 9.5 12 5 9.5 5z" fill="currentColor"/></svg><svg fill="currentColor" viewBox="0 0 24 24" id="mail" xmlns="http://www.w3.org/2000/svg"><path d="M0 0h24v24H0z" fill="none"/><path d="M20 4H4c-1.1 0-1.99.9-1.99 2L2 18c0 1.1.9 2 2 2h16c1.1 0 2-.9 2-2V6c0-1.1-.9-2-2-2zm0 4l-8 5-8-5V6l8 5 8-5v2z"/></svg><svg fill="currentColor" viewBox="0 0 24 24" id="mail_outline" xmlns="http://www.w3.org/2000/svg"><path d="M0 0h24v24H0z" fill="none"/><path d="M20 4H4c-1.1 0-1.99.9-1.99 2L2 18c0 1.1.9 2 2 2h16c1.1 0 2-.9 2-2V6c0-1.1-.9-2-2-2zm0 14H4V8l8 5 8-5v10zm-8-7L4 6h16l-8 5z"/></svg><svg fill="none" viewBox="0 0 24 24" id="menu" xmlns="http://www.w3.org/2000/svg"><path d="M3 6h18v2H3V6zm0 5h18v2H3v-2zm0 5h18v2H3v-2z" fill="currentColor"/></svg><svg fill="none" viewBox="0 0 24 24" id="menu_down" xmlns="http://www.w3.org/2000/svg"><path d="M7 10l5 5 5-5H7z" fill="currentColor"/></svg><svg fill="none" viewBox="0 0 24 24" id="menu_left" xmlns="http://www.w3.org/2000/svg"><path d="M14 7l-5 5 5 5V7z" fill="currentColor"/></svg><svg fill="none" viewBox="0 0 24 24" id="menu_right" xmlns="http://www.w3.org/2000/svg"><path d="M10 17l5-5-5-5v10z" fill="currentColor"/></svg><svg fill="none" viewBox="0 0 24 24" id="menu_swap" xmlns="http://www.w3.org/2000/svg"><path d="M12 6l-5 5h10l-5-5zm-5 7l5 5 5-5H7z" fill="currentColor"/></svg><svg fill="none" viewBox="0 0 24 24" id="menu_up" xmlns="http://www.w3.org/2000/svg"><path d="M7 15l5-5 5 5H7z" fill="currentColor"/></svg><svg fill="currentColor" viewBox="0 0 24 24" id="message" xmlns="http://www.w3.org/2000/svg"><path d="M0 0h24v24H0z" fill="none"/><path d="M20 2H4c-1.1 0-1.99.9-1.99 2L2 22l4-4h14c1.1 0 2-.9 2-2V4c0-1.1-.9-2-2-2zM6 9h12v2H6V9zm8 5H6v-2h8v2zm4-6H6V6h12v2z"/></svg><svg fill="none" viewBox="0 0 24 24" id="microphone" xmlns="http://www.w3.org/2000/svg"><path d="M12 2a3 3 0 013 3v6a3 3 0 01-6 0V5a3 3 0 013-3zm7 9c0 3.53-2.61 6.44-6 6.93V21h-2v-3.07c-3.39-.49-6-3.4-6-6.93h2a5 5 0 1010 0h2z" fill="currentColor"/></svg><svg fill="currentColor" viewBox="0 0 24 24" id="minus_circle" xmlns="http://www.w3.org/2000/svg"><path d="M0 0h24v24H0z" fill="none"/><path d="M12 2C6.48 2 2 6.48 2 12s4.48 10 10 10 10-4.48 10-10S17.52 2 12 2zm5 11H7v-2h10v2z"/></svg><svg fill="currentColor" viewBox="0 0 24 24" id="more_vert" xmlns="http://www.w3.org/2000/svg"><path d="M0 0h24v24H0z" fill="none"/><path d="M12 8c1.1 0 2-.9 2-2s-.9-2-2-2-2 .9-2 2 .9 2 2 2zm0 2c-1.1 0-2 .9-2 2s.9 2 2 2 2-.9 2-2-.9-2-2-2zm0 6c-1.1 0-2 .9-2 2s.9 2 2 2 2-.9 2-2-.9-2-2-2z"/></svg><svg fill="none" viewBox="0 0 24 24" id="open_in_new" xmlns="http://www.w3.org/2000/svg"><path d="M14 3v2h3.59l-9.83 9.83 1.41 1.41L19 6.41V10h2V3m-2 16H5V5h7V3H5a2 2 0 00-2 2v14a2 2 0 002 2h14a2 2 0 002-2v-7h-2v7z" fill="currentColor"/></svg><svg fill="none" viewBox="0 0 24 24" id="pause" xmlns="http://www.w3.org/2000/svg"><path d="M14 19h4V5h-4M6 19h4V5H6v14z" fill="currentColor"/></svg><svg fill="none" viewBox="0 0 24 24" id="play" xmlns="http://www.w3.org/2000/svg"><path d="M8 5.14v14l11-7-11-7z" fill="currentColor"/></svg><svg fill="none" viewBox="0 0 24 24" id="plus" xmlns="http://www.w3.org/2000/svg"><path d="M19 13h-6v6h-2v-6H5v-2h6V5h2v6h6v2z" fill="currentColor"/></svg><svg fill="none" viewBox="0 0 24 24" id="plus_circle" xmlns="http://www.w3.org/2000/svg"><path d="M17 13h-4v4h-2v-4H7v-2h4V7h2v4h4m-5-9a10 10 0 100 20 10 10 0 000-20z" fill="currentColor"/></svg><svg fill="none" viewBox="0 0 24 24" id="plus_circle_multiple_outline" xmlns="http://www.w3.org/2000/svg"><path d="M16 8h-2v3h-3v2h3v3h2v-3h3v-2h-3M2 12c0-2.79 1.64-5.2 4-6.32V3.5C2.5 4.76 0 8.09 0 12s2.5 7.24 6 8.5v-2.18C3.64 17.2 2 14.79 2 12zm13-9c-4.96 0-9 4.04-9 9s4.04 9 9 9 9-4.04 9-9-4.04-9-9-9zm0 16c-3.86 0-7-3.14-7-7s3.14-7 7-7 7 3.14 7 7-3.14 7-7 7z" fill="currentColor"/></svg><svg fill="none" viewBox="0 0 24 24" id="podcast" xmlns="http://www.w3.org/2000/svg"><path d="M17 18.25v3.25H7v-3.25c0-1.38 2.24-2.5 5-2.5s5 1.12 5 2.5zM12 5.5a6.5 6.5 0 016.5 6.5c0 1.25-.35 2.42-.96 3.41L16 14.04c.32-.61.5-1.31.5-2.04 0-2.5-2-4.5-4.5-4.5s-4.5 2-4.5 4.5c0 .73.18 1.43.5 2.04l-1.54 1.37c-.61-.99-.96-2.16-.96-3.41A6.5 6.5 0 0112 5.5zm0-4a10.5 10.5 0 018.54 16.61l-1.5-1.35a8.5 8.5 0 10-14.08 0l-1.5 1.35A10.5 10.5 0 0112 1.5zm0 8a2.5 2.5 0 110 5 2.5 2.5 0 010-5z" fill="currentColor"/></svg><svg fill="none" viewBox="0 0 48 48" id="quote" xmlns="http://www.w3.org/2000/svg"><g fill-rule="evenodd" clip-rule="evenodd" fill="currentColor"><path d="M20.35 5.638C21.493 6.786 22 8.348 22 10v16c0 7.38-2.122 12.048-5.483 14.798C13.232 43.486 9.164 44 6 44h-.077c-.431 0-.906 0-1.3-.043-.403-.045-1.167-.172-1.787-.793-.62-.62-.748-1.383-.792-1.787C2 40.983 2 40.508 2 40.077V36.062v-.076c0-.444 0-.925.043-1.324.043-.404.165-1.16.766-1.785.614-.638 1.38-.779 1.798-.829C5.017 32 5.505 32 5.945 32H6c.35 0 .867-.195 1.336-.664.47-.47.664-.986.664-1.336v-2c-1.651 0-3.207-.503-4.352-1.648C2.503 25.207 2 23.652 2 22V9.944c0-1.635.51-3.176 1.656-4.31C4.799 4.503 6.349 4 8 4h7.987c1.661-.02 3.219.49 4.363 1.638zm-2.834 2.823c-.23-.231-.667-.472-1.489-.461H8c-.85 0-1.298.247-1.53.477-.23.227-.47.658-.47 1.467V22c0 .849.247 1.294.477 1.523.23.23.674.477 1.523.477h.077c.431 0 .906 0 1.3.044.403.044 1.167.171 1.787.792.62.62.748 1.384.793 1.787.043.394.043.869.043 1.3V30c0 1.65-.805 3.134-1.836 4.164C9.134 35.195 7.651 36 6 36v4c2.837 0 5.768-.485 7.984-2.298C16.122 35.952 18 32.62 18 26V10c0-.847-.249-1.303-.484-1.539zM44.35 5.638C45.491 6.785 46 8.347 46 10v16c0 7.38-2.122 12.048-5.483 14.798C37.231 43.486 33.163 44 30 44h-.077c-.431 0-.906 0-1.3-.043-.403-.045-1.167-.172-1.787-.793-.62-.62-.748-1.383-.792-1.787-.044-.394-.044-.869-.044-1.3V34a2 2 0 012-2c1.333 0 2.082-.199 2.496-.406.35-.175.532-.388.67-.704.168-.386.278-.959.32-1.839.018-.344.023-.695.024-1.066-1.466-.091-2.83-.602-3.862-1.633C26.503 25.207 26 23.652 26 22V9.944c0-1.635.51-3.176 1.656-4.31C28.799 4.503 30.349 4 32 4h7.987c1.66-.02 3.218.49 4.362 1.638zm-2.834 2.823c-.231-.231-.668-.472-1.489-.461H32c-.85 0-1.299.247-1.53.477-.23.227-.47.658-.47 1.467V22c0 .849.247 1.294.477 1.523.23.23.674.477 1.523.477h1.5a2 2 0 012 2c0 .287.002.586.005.888.006.793.013 1.616-.023 2.358-.05 1.041-.19 2.188-.648 3.239a5.287 5.287 0 01-2.549 2.687c-.678.339-1.441.562-2.285.69V40c2.837 0 5.768-.485 7.984-2.298C40.122 35.952 42 32.62 42 26V10c0-.847-.249-1.302-.484-1.539z"/></g></svg><svg fill="none" viewBox="0 0 24 24" id="reload" xmlns="http://www.w3.org/2000/svg"><path d="M2 12a9 9 0 009 9c2.39 0 4.68-.94 6.4-2.6l-1.5-1.5A6.706 6.706 0 0111 19c-6.24 0-9.36-7.54-4.95-11.95C10.46 2.64 18 5.77 18 12h-3l4 4h.1l3.9-4h-3a9 9 0 00-18 0z" fill="currentColor"/></svg><svg fill="none" viewBox="0 0 24 24" id="send" xmlns="http://www.w3.org/2000/svg"><path d="M2 21l21-9L2 3v7l15 2-15 2v7z" fill="currentColor"/></svg><svg fill="none" viewBox="0 0 24 24" id="send_clock" xmlns="http://www.w3.org/2000/svg"><path d="M2 3v7l9 2-9 2v7l7.27-3.11A7 7 0 0016 23a7 7 0 100-14L2 3zm14 8a5 5 0 110 10 5 5 0 010-10zm-1 1.5v4l3 2 .75-1.25-2.25-1.5V12.5H15z" fill="currentColor"/></svg><svg fill="none" viewBox="0 0 24 24" id="send_lock" xmlns="http://www.w3.org/2000/svg"><path d="M23 18v-.5a2.5 2.5 0 00-5 0v.5a1 1 0 00-1 1v4a1 1 0 001 1h5a1 1 0 001-1v-4a1 1 0 00-1-1zm-1 0h-3v-.5a1.5 1.5 0 113 0v.5zm1-6L2 21v-7l15-2-15-2V3l21 9z" fill="currentColor"/></svg><svg fill="none" viewBox="0 0 24 24" id="square_outline" xmlns="http://www.w3.org/2000/svg"><path d="M3 3h18v18H3V3zm2 2v14h14V5H5z" fill="currentColor"/></svg><svg viewBox="0 0 24 24" id="subdirectory_arrow_right" xmlns="http://www.w3.org/2000/svg"><path d="M0 0h24v24H0V0z" fill="none"/><path d="M19 15l-6 6-1.42-1.42L15.17 16H4V4h2v10h9.17l-3.59-3.58L13 9l6 6z" fill="currentColor"/></svg><svg fill="none" viewBox="0 0 24 24" id="swap_horizontal" xmlns="http://www.w3.org/2000/svg"><path d="M21 9l-4-4v3h-7v2h7v3M7 11l-4 4 4 4v-3h7v-2H7v-3z" fill="currentColor"/></svg><svg fill="none" viewBox="0 0 24 24" id="swap_horizontal_circle" xmlns="http://www.w3.org/2000/svg"><path d="M22 12c0-5.5-4.5-10-10-10S2 6.5 2 12s4.5 10 10 10 10-4.5 10-10zm-7-5.5l3.5 3.5-3.5 3.5V11h-4V9h4V6.5zm-6 11L5.5 14 9 10.5V13h4v2H9v2.5z" fill="currentColor"/></svg><svg fill="none" viewBox="0 0 24 24" id="table" xmlns="http://www.w3.org/2000/svg"><path d="M5 4h14a2 2 0 012 2v12a2 2 0 01-2 2H5a2 2 0 01-2-2V6a2 2 0 012-2zm0 4v4h6V8H5zm8 0v4h6V8h-6zm-8 6v4h6v-4H5zm8 0v4h6v-4h-6z" fill="currentColor"/></svg><svg fill="none" viewBox="0 0 24 24" id="text" xmlns="http://www.w3.org/2000/svg"><path d="M21 6v2H3V6h18zM3 18h9v-2H3v2zm0-5h18v-2H3v2z" fill="currentColor"/></svg><svg viewBox="0 0 24 24" id="th-large" xmlns="http://www.w3.org/2000/svg"><path fill="currentColor" d="M11.473 13.58v3.16q0 .428-.312.74-.313.313-.741.313H6.207q-.428 0-.741-.312-.313-.313-.313-.74V13.58q0-.428.313-.74.313-.313.74-.313h4.214q.428 0 .74.312.313.313.313.741zm0-6.32v3.16q0 .428-.312.74-.313.313-.741.313H6.207q-.428 0-.741-.312-.313-.313-.313-.741V7.26q0-.428.313-.74.313-.313.74-.313h4.214q.428 0 .74.312.313.313.313.74zm7.374 6.32v3.16q0 .428-.313.74-.313.313-.74.313H13.58q-.428 0-.74-.312-.313-.313-.313-.74V13.58q0-.428.312-.74.313-.313.741-.313h4.213q.428 0 .741.312.313.313.313.741zm0-6.32v3.16q0 .428-.313.74-.313.313-.74.313H13.58q-.428 0-.74-.312-.313-.313-.313-.741V7.26q0-.428.312-.74.313-.313.741-.313h4.213q.428 0 .741.312.313.313.313.74z"/></svg><svg viewBox="0 0 24 24" id="th-list" xmlns="http://www.w3.org/2000/svg"><path fill="currentColor" d="M8.68 15.596v1.66q0 .345-.241.587-.242.242-.588.242H5.085q-.346 0-.588-.242t-.242-.587v-1.66q0-.346.242-.588t.588-.242H7.85q.346 0 .588.242t.242.588zm0-4.426v1.66q0 .346-.241.588-.242.242-.588.242H5.085q-.346 0-.588-.242t-.242-.588v-1.66q0-.346.242-.588t.588-.242H7.85q.346 0 .588.242t.242.588zm11.065 4.426v1.66q0 .345-.242.587t-.588.242h-8.298q-.346 0-.588-.242t-.242-.587v-1.66q0-.346.242-.588t.588-.242h8.298q.346 0 .588.242t.242.588zM8.681 6.744v1.66q0 .346-.242.588t-.588.242H5.085q-.346 0-.588-.242t-.242-.588v-1.66q0-.345.242-.587t.588-.242H7.85q.346 0 .588.242t.242.587zm11.064 4.426v1.66q0 .346-.242.588t-.588.242h-8.298q-.346 0-.588-.242t-.242-.588v-1.66q0-.346.242-.588t.588-.242h8.298q.346 0 .588.242t.242.588zm0-4.426v1.66q0 .346-.242.588t-.588.242h-8.298q-.346 0-.588-.242t-.242-.588v-1.66q0-.345.242-.587t.588-.242h8.298q.346 0 .588.242t.242.587z"/></svg><svg fill="none" viewBox="0 0 24 24" id="tune_vertical_variant" xmlns="http://www.w3.org/2000/svg"><path d="M8 12.14V2H6v10.14c-1.72.45-3 2-3 3.86 0 1.86 1.28 3.41 3 3.86V22h2v-2.14c1.72-.45 3-2 3-3.86 0-1.86-1.28-3.41-3-3.86zM7 14c1.1 0 2 .9 2 2s-.9 2-2 2-2-.9-2-2 .9-2 2-2zM18 2h-2v2.14c-1.72.45-3 2-3 3.86 0 1.86 1.28 3.41 3 3.86V22h2V11.86c1.72-.45 3-2 3-3.86 0-1.86-1.28-3.41-3-3.86V2zm-1 4c1.1 0 2 .9 2 2s-.9 2-2 2-2-.9-2-2 .9-2 2-2z" fill="currentColor"/></svg><svg fill="none" viewBox="0 0 24 24" id="user" xmlns="http://www.w3.org/2000/svg"><path fill-rule="evenodd" clip-rule="evenodd" d="M5.464 15.464A5 5 0 019 14h6a5 5 0 015 5v2a1 1 0 11-2 0v-2a3 3 0 00-3-3H9a3 3 0 00-3 3v2a1 1 0 11-2 0v-2a5 5 0 011.464-3.536zM12 4a3 3 0 100 6 3 3 0 000-6zM7 7a5 5 0 1110 0A5 5 0 017 7z" fill="#000"/></svg><svg fill="none" viewBox="0 0 24 24" id="video" xmlns="http://www.w3.org/2000/svg"><path d="M17 10.5V7a1 1 0 00-1-1H4a1 1 0 00-1 1v10a1 1 0 001 1h12a1 1 0 001-1v-3.5l4 4v-11l-4 4z" fill="currentColor"/></svg><svg fill="none" viewBox="0 0 24 24" id="view_dashboard_variant_outline" xmlns="http://www.w3.org/2000/svg"><path d="M2 5v14h20V5H2zm18 7h-4V7h4v5zm-6-2h-4V7h4v3zm-4 2h4v5h-4v-5zM4 7h4v10H4V7zm12 10v-3h4v3h-4z" fill="currentColor"/></svg><svg fill="currentColor" viewBox="0 0 24 24" id="visibility_off" xmlns="http://www.w3.org/2000/svg"><path d="M0 0h24v24H0zm0 0h24v24H0zm0 0h24v24H0zm0 0h24v24H0z" fill="none"/><path d="M12 7c2.76 0 5 2.24 5 5 0 .65-.13 1.26-.36 1.83l2.92 2.92c1.51-1.26 2.7-2.89 3.43-4.75-1.73-4.39-6-7.5-11-7.5-1.4 0-2.74.25-3.98.7l2.16 2.16C10.74 7.13 11.35 7 12 7zM2 4.27l2.28 2.28.46.46A11.804 11.804 0 001 12c1.73 4.39 6 7.5 11 7.5 1.55 0 3.03-.3 4.38-.84l.42.42L19.73 22 21 20.73 3.27 3 2 4.27zM7.53 9.8l1.55 1.55c-.05.21-.08.43-.08.65 0 1.66 1.34 3 3 3 .22 0 .44-.03.65-.08l1.55 1.55c-.67.33-1.41.53-2.2.53-2.76 0-5-2.24-5-5 0-.79.2-1.53.53-2.2zm4.31-.78l3.15 3.15.02-.16c0-1.66-1.34-3-3-3l-.17.01z"/></svg><svg fill="none" viewBox="0 0 24 24" id="volume_medium" xmlns="http://www.w3.org/2000/svg"><path d="M5 9v6h4l5 5V4L9 9m9.5 3c0-1.77-1-3.29-2.5-4.03V16c1.5-.71 2.5-2.24 2.5-4z" fill="currentColor"/></svg><svg fill="none" viewBox="0 0 24 24" id="xml" xmlns="http://www.w3.org/2000/svg"><path d="M12.89 3l1.96.4L11.11 21l-1.96-.4L12.89 3zm6.7 9L16 8.41V5.58L22.42 12 16 18.41v-2.83L19.59 12zM1.58 12L8 5.58v2.83L4.41 12 8 15.58v2.83L1.58 12z" fill="currentColor"/></svg></defs></svg>