<svg width="24" height="24" viewBox="0 0 24 24" fill="none" xmlns="http://www.w3.org/2000/svg">
<path d="M19 3H5C3.89 3 3 3.89 3 5V19C3 19.5304 3.21071 20.0391 3.58579 20.4142C3.96086 20.7893 4.46957 21 5 21H19C19.5304 21 20.0391 20.7893 20.4142 20.4142C20.7893 20.0391 21 19.5304 21 19V5C21 4.46957 20.7893 3.96086 20.4142 3.58579C20.0391 3.21071 19.5304 3 19 3ZM17 15.59L15.59 17L12 13.41L8.41 17L7 15.59L10.59 12L7 8.41L8.41 7L12 10.59L15.59 7L17 8.41L13.41 12L17 15.59Z" fill="currentColor"/>
</svg>
