<svg width="24" height="24" viewBox="0 0 24 24" fill="none" xmlns="http://www.w3.org/2000/svg">
<path d="M12.0001 15.5C11.0718 15.5 10.1816 15.1313 9.52521 14.4749C8.86883 13.8185 8.50008 12.9283 8.50008 12C8.50008 11.0717 8.86883 10.1815 9.52521 9.52513C10.1816 8.86875 11.0718 8.5 12.0001 8.5C12.9283 8.5 13.8186 8.86875 14.475 9.52513C15.1313 10.1815 15.5001 11.0717 15.5001 12C15.5001 12.9283 15.1313 13.8185 14.475 14.4749C13.8186 15.1313 12.9283 15.5 12.0001 15.5ZM19.4301 12.97C19.4701 12.65 19.5001 12.33 19.5001 12C19.5001 11.67 19.4701 11.34 19.4301 11L21.5401 9.37C21.7301 9.22 21.7801 8.95 21.6601 8.73L19.6601 5.27C19.5401 5.05 19.2701 4.96 19.0501 5.05L16.5601 6.05C16.0401 5.66 15.5001 5.32 14.8701 5.07L14.5001 2.42C14.4601 2.18 14.2501 2 14.0001 2H10.0001C9.75008 2 9.54008 2.18 9.50008 2.42L9.13008 5.07C8.50008 5.32 7.96008 5.66 7.44008 6.05L4.95008 5.05C4.73008 4.96 4.46008 5.05 4.34008 5.27L2.34008 8.73C2.21008 8.95 2.27008 9.22 2.46008 9.37L4.57008 11C4.53008 11.34 4.50008 11.67 4.50008 12C4.50008 12.33 4.53008 12.65 4.57008 12.97L2.46008 14.63C2.27008 14.78 2.21008 15.05 2.34008 15.27L4.34008 18.73C4.46008 18.95 4.73008 19.03 4.95008 18.95L7.44008 17.94C7.96008 18.34 8.50008 18.68 9.13008 18.93L9.50008 21.58C9.54008 21.82 9.75008 22 10.0001 22H14.0001C14.2501 22 14.4601 21.82 14.5001 21.58L14.8701 18.93C15.5001 18.67 16.0401 18.34 16.5601 17.94L19.0501 18.95C19.2701 19.03 19.5401 18.95 19.6601 18.73L21.6601 15.27C21.7801 15.05 21.7301 14.78 21.5401 14.63L19.4301 12.97Z" fill="currentColor"/>
</svg>
