<svg width="16" height="16" viewBox="0 0 16 16" fill="none" xmlns="http://www.w3.org/2000/svg">
<path id="Vector" d="M10.6667 7.99996C10.6667 7.64634 10.8072 7.3072 11.0573 7.05715C11.3073 6.8071 11.6465 6.66663 12.0001 6.66663C12.3537 6.66663 12.6928 6.8071 12.9429 7.05715C13.1929 7.3072 13.3334 7.64634 13.3334 7.99996C13.3334 8.35358 13.1929 8.69272 12.9429 8.94277C12.6928 9.19282 12.3537 9.33329 12.0001 9.33329C11.6465 9.33329 11.3073 9.19282 11.0573 8.94277C10.8072 8.69272 10.6667 8.35358 10.6667 7.99996ZM6.66675 7.99996C6.66675 7.64634 6.80722 7.3072 7.05727 7.05715C7.30732 6.8071 7.64646 6.66663 8.00008 6.66663C8.3537 6.66663 8.69284 6.8071 8.94289 7.05715C9.19294 7.3072 9.33341 7.64634 9.33341 7.99996C9.33341 8.35358 9.19294 8.69272 8.94289 8.94277C8.69284 9.19282 8.3537 9.33329 8.00008 9.33329C7.64646 9.33329 7.30732 9.19282 7.05727 8.94277C6.80722 8.69272 6.66675 8.35358 6.66675 7.99996ZM2.66675 7.99996C2.66675 7.64634 2.80722 7.3072 3.05727 7.05715C3.30732 6.8071 3.64646 6.66663 4.00008 6.66663C4.3537 6.66663 4.69284 6.8071 4.94289 7.05715C5.19294 7.3072 5.33341 7.64634 5.33341 7.99996C5.33341 8.35358 5.19294 8.69272 4.94289 8.94277C4.69284 9.19282 4.3537 9.33329 4.00008 9.33329C3.64646 9.33329 3.30732 9.19282 3.05727 8.94277C2.80722 8.69272 2.66675 8.35358 2.66675 7.99996Z" fill="currentColor"/>
</svg>
