<svg width="24" height="24" viewBox="0 0 24 24" fill="none" xmlns="http://www.w3.org/2000/svg">
<path d="M19 3C19.5304 3 20.0391 3.21071 20.4142 3.58579C20.7893 3.96086 21 4.46957 21 5V19C21 20.11 20.1 21 19 21H5C4.46957 21 3.96086 20.7893 3.58579 20.4142C3.21071 20.0391 3 19.5304 3 19V5C3 4.46957 3.21071 3.96086 3.58579 3.58579C3.96086 3.21071 4.46957 3 5 3H19ZM16.7 9.35C16.92 9.14 16.92 8.79 16.7 8.58L15.42 7.3C15.21 7.08 14.86 7.08 14.65 7.3L13.65 8.3L15.7 10.35L16.7 9.35ZM7 14.94V17H9.06L15.12 10.94L13.06 8.88L7 14.94Z" fill="currentColor"/>
</svg>
