<svg width="24" height="24" viewBox="0 0 24 24" fill="none" xmlns="http://www.w3.org/2000/svg">
<path d="M23 12V14H18.61C19.61 16.14 19.56 22 12.38 22C4.05 22.05 4.37 15.5 4.37 15.5L8.34 15.55C8.37 18.92 11.5 18.92 12.12 18.88C12.76 18.83 15.15 18.84 15.34 16.5C15.42 15.41 14.32 14.58 13.12 14H1V12H23ZM19.41 7.88998L15.43 7.85998C15.43 7.85998 15.6 5.08998 12.15 5.07998C8.7 5.05998 9 7.27998 9 7.55998C9.04 7.83998 9.34 9.21998 12 9.87998H5.71C5.71 9.87998 2.22 3.14998 10.74 1.99998C19.45 0.799979 19.43 7.90998 19.41 7.88998Z" fill="currentColor"/>
</svg>
