<svg width="24" height="24" viewBox="0 0 24 24" fill="none" xmlns="http://www.w3.org/2000/svg">
<path fill-rule="evenodd" clip-rule="evenodd" d="M11.7071 9.29289C12.0977 9.68342 12.0977 10.3166 11.7071 10.7071L4.20715 18.2071C4.103 18.3111 4.01993 18.4351 3.96356 18.5711C3.90719 18.707 3.87817 18.8528 3.87817 19C3.87817 19.1472 3.90719 19.293 3.96356 19.4289C4.01993 19.5649 4.10256 19.6884 4.20671 19.7925C4.64618 20.2319 5.35346 20.2324 5.79293 19.7929L13.2929 12.2929C13.6835 11.9024 14.3166 11.9024 14.7071 12.2929C15.0977 12.6834 15.0977 13.3166 14.7071 13.7071L7.20715 21.2071C5.98677 22.4275 4.01393 22.4276 2.79338 21.2075C2.50325 20.9178 2.27308 20.5737 2.11604 20.1949C1.959 19.8161 1.87817 19.4101 1.87817 19C1.87817 18.5899 1.959 18.1839 2.11604 17.8051C2.27307 17.4264 2.50322 17.0823 2.79333 16.7925C2.79332 16.7925 2.79335 16.7925 2.79333 16.7925L10.2929 9.29289C10.6835 8.90237 11.3166 8.90237 11.7071 9.29289Z" fill="currentColor"/>
<path fill-rule="evenodd" clip-rule="evenodd" d="M22.7071 9.29289C23.0976 9.68342 23.0976 10.3166 22.7071 10.7071L16.7071 16.7071C16.3166 17.0976 15.6834 17.0976 15.2929 16.7071C14.9024 16.3166 14.9024 15.6834 15.2929 15.2929L21.2929 9.29289C21.6834 8.90237 22.3166 8.90237 22.7071 9.29289Z" fill="currentColor"/>
<path fill-rule="evenodd" clip-rule="evenodd" d="M14.7071 1.29289C15.0976 1.68342 15.0976 2.31658 14.7071 2.70711L8.70711 8.70711C8.31658 9.09763 7.68342 9.09763 7.29289 8.70711C6.90237 8.31658 6.90237 7.68342 7.29289 7.29289L13.2929 1.29289C13.6834 0.902369 14.3166 0.902369 14.7071 1.29289Z" fill="currentColor"/>
<path fill-rule="evenodd" clip-rule="evenodd" d="M8.29289 6.29289C8.68342 5.90237 9.31658 5.90237 9.70711 6.29289L17.7071 14.2929C18.0976 14.6834 18.0976 15.3166 17.7071 15.7071C17.3166 16.0976 16.6834 16.0976 16.2929 15.7071L8.29289 7.70711C7.90237 7.31658 7.90237 6.68342 8.29289 6.29289Z" fill="currentColor"/>
<path fill-rule="evenodd" clip-rule="evenodd" d="M12.2929 2.29289C12.6834 1.90237 13.3166 1.90237 13.7071 2.29289L21.7071 10.2929C22.0976 10.6834 22.0976 11.3166 21.7071 11.7071C21.3166 12.0976 20.6834 12.0976 20.2929 11.7071L12.2929 3.70711C11.9024 3.31658 11.9024 2.68342 12.2929 2.29289Z" fill="currentColor"/>
</svg>
