<svg width="24" height="24" viewBox="0 0 24 24" fill="none" xmlns="http://www.w3.org/2000/svg">
<path d="M9.06 1.92997C7.17 1.91997 5.33 3.73997 6.17 5.99997H3C2.46957 5.99997 1.96086 6.21069 1.58579 6.58576C1.21071 6.96083 1 7.46954 1 7.99997V9.99997C1 10.2652 1.10536 10.5195 1.29289 10.7071C1.48043 10.8946 1.73478 11 2 11H11V7.99997H13V11H22C22.2652 11 22.5196 10.8946 22.7071 10.7071C22.8946 10.5195 23 10.2652 23 9.99997V7.99997C23 7.46954 22.7893 6.96083 22.4142 6.58576C22.0391 6.21069 21.5304 5.99997 21 5.99997H17.83C19 2.72997 14.6 0.419973 12.57 3.23997L12 3.99997L11.43 3.21997C10.8 2.32997 9.93 1.93997 9.06 1.92997ZM9 3.99997C9.89 3.99997 10.34 5.07997 9.71 5.70997C9.08 6.33997 8 5.88997 8 4.99997C8 4.73476 8.10536 4.4804 8.29289 4.29287C8.48043 4.10533 8.73478 3.99997 9 3.99997ZM15 3.99997C15.89 3.99997 16.34 5.07997 15.71 5.70997C15.08 6.33997 14 5.88997 14 4.99997C14 4.73476 14.1054 4.4804 14.2929 4.29287C14.4804 4.10533 14.7348 3.99997 15 3.99997ZM2 12V20C2 20.5304 2.21071 21.0391 2.58579 21.4142C2.96086 21.7893 3.46957 22 4 22H20C20.5304 22 21.0391 21.7893 21.4142 21.4142C21.7893 21.0391 22 20.5304 22 20V12H13V20H11V12H2Z" fill="currentColor"/>
</svg>
