<svg width="48" height="48" viewBox="0 0 48 48" fill="none" xmlns="http://www.w3.org/2000/svg">
  <g id="quote">
    <path id="Vector (Stroke)" fill-rule="evenodd" clip-rule="evenodd" d="M20.3501 5.63841C21.493 6.78595 22 8.3474 22 10.0001V26.0001C22 33.3798 19.8778 38.0478 16.5165 40.798C13.2318 43.4855 9.16351 44.0001 6.00004 44.0001C5.97463 44.0001 5.94905 44.0001 5.92331 44.0001C5.49198 44.0002 5.01743 44.0004 4.62293 43.9566C4.21962 43.9118 3.45648 43.7849 2.83582 43.1643C2.21517 42.5436 2.08833 41.7805 2.04352 41.3772C1.99969 40.9827 1.99986 40.5081 2.00002 40.0768C2.00003 40.051 2.00004 40.0255 2.00004 40.0001V36.0621C2.00004 36.0368 2.00003 36.0114 2.00002 35.9858C1.99988 35.5422 1.99972 35.0611 2.04286 34.6619C2.08648 34.2582 2.20819 33.5012 2.80904 32.8769C3.4232 32.2388 4.18824 32.0984 4.60746 32.0485C5.01647 31.9999 5.50535 32 5.9448 32L6.00004 32.0001C6.34958 32.0001 6.86652 31.8051 7.33582 31.3358C7.80513 30.8665 8.00004 30.3496 8.00004 30.0001V28.0001C6.34902 28.0001 4.79345 27.4969 3.64832 26.3518C2.5032 25.2066 2.00004 23.6511 2.00004 22.0001V9.94406C2.00004 8.30911 2.51042 6.76763 3.65558 5.63412C4.79858 4.50276 6.34934 4.00006 8.00004 4.00006H15.9874C17.648 3.98046 19.2059 4.48964 20.3501 5.63841ZM17.516 8.4612C17.2856 8.22986 16.8492 7.98864 16.0274 7.99987L16 8.00024V8.00006H8.00004C7.15074 8.00006 6.7015 8.24735 6.4695 8.47699C6.23966 8.70448 6.00004 9.135 6.00004 9.94406V22.0001C6.00004 22.849 6.24687 23.2935 6.47675 23.5233C6.70663 23.7532 7.15105 24.0001 8.00004 24.0001C8.02544 24.0001 8.05103 24 8.07677 24C8.50809 23.9999 8.98265 23.9997 9.37715 24.0435C9.78046 24.0884 10.5436 24.2152 11.1643 24.8358C11.7849 25.4565 11.9117 26.2196 11.9566 26.6229C12.0004 27.0175 12.0002 27.492 12.0001 27.9233C12 27.9491 12 27.9747 12 28.0001V30.0001C12 31.6505 11.1949 33.1336 10.1643 34.1643C9.13356 35.195 7.6505 36.0001 6.00004 36.0001C6.00004 36.0204 6.00004 36.041 6.00004 36.0621V40.0001C8.83657 40.0001 11.7683 39.5146 13.9836 37.7021C16.1222 35.9523 18 32.6203 18 26.0001V10.0001C18 9.15271 17.751 8.69716 17.516 8.4612Z" fill="currentColor"/>
    <path id="Vector (Stroke)_2" fill-rule="evenodd" clip-rule="evenodd" d="M44.3491 5.63815C45.4921 6.78536 46 8.34668 46 10.0001V26.0001C46 33.3798 43.8778 38.0478 40.5165 40.798C37.2318 43.4855 33.1635 44.0001 30 44.0001C29.9746 44.0001 29.9491 44.0001 29.9233 44.0001C29.492 44.0002 29.0174 44.0004 28.6229 43.9566C28.2196 43.9118 27.4565 43.7849 26.8358 43.1643C26.2152 42.5436 26.0883 41.7805 26.0435 41.3772C25.9997 40.9827 25.9999 40.5081 26 40.0768C26 40.051 26 40.0255 26 40.0001V34.0001C26 32.8955 26.8955 32.0001 28 32.0001C29.3328 32.0001 30.0818 31.8012 30.4962 31.594C30.8466 31.4188 31.0283 31.2065 31.1659 30.8901C31.3339 30.5037 31.4438 29.9315 31.4868 29.051C31.5036 28.7068 31.5094 28.3555 31.5103 27.985C30.0435 27.8935 28.6795 27.3829 27.6483 26.3518C26.5032 25.2066 26 23.6511 26 22.0001V9.94406C26 8.30911 26.5104 6.76763 27.6556 5.63412C28.7986 4.50276 30.3493 4.00006 32 4.00006H39.9874C41.6474 3.98046 43.2049 4.48985 44.3491 5.63815ZM41.5155 8.46146C41.2845 8.22965 40.8479 7.98865 40.0274 7.99987L40 8.00024V8.00006H32C31.1507 8.00006 30.7015 8.24735 30.4695 8.47699C30.2397 8.70448 30 9.135 30 9.94406V22.0001C30 22.849 30.2469 23.2935 30.4768 23.5233C30.7066 23.7532 31.1511 24.0001 32 24.0001H33.5C34.6046 24.0001 35.5 24.8955 35.5 26.0001C35.5 26.2874 35.5025 26.5856 35.505 26.8883C35.5115 27.6807 35.5182 28.5042 35.482 29.2459C35.4312 30.2874 35.2912 31.4339 34.8342 32.485C34.3467 33.6061 33.5285 34.55 32.2851 35.1717C31.6071 35.5107 30.8435 35.7337 30 35.862V40.0001C32.8366 40.0001 35.7683 39.5146 37.9836 37.7021C40.1222 35.9523 42 32.6203 42 26.0001V10.0001C42 9.15343 41.751 8.69775 41.5155 8.46146Z" fill="currentColor"/>
  </g>
</svg>
