<svg width="24" height="24" viewBox="0 0 24 24" fill="none" xmlns="http://www.w3.org/2000/svg">
<path d="M5.28547 21C4.82963 20.9065 4.50142 20.7477 4.30085 20.5234C4.10028 20.2804 4 20.0561 4 19.8505C4 19.6075 4.06382 19.4019 4.19145 19.2336C4.31909 19.0467 4.49231 18.8318 4.71111 18.5888L6.07863 17.1589L7.61026 18.4206L5.28547 21ZM17.6205 7.09346L16.3624 5.49533L18.5504 3C18.9151 3.07477 19.216 3.21495 19.453 3.42056C19.7083 3.60748 19.8359 3.83178 19.8359 4.09346C19.8359 4.26168 19.7812 4.43925 19.6718 4.62617C19.5806 4.81308 19.4074 5.06542 19.1521 5.38318L17.6205 7.09346ZM7.28205 18.8131L6.35214 16.9346L15.9521 5.94393L17.2376 7.48598L7.28205 18.8131ZM20 12.028C20 13.972 19.6536 15.6075 18.9607 16.9346C18.2678 18.243 17.3197 19.2336 16.1162 19.9065C14.9311 20.5794 13.5818 20.9159 12.0684 20.9159C10.5732 20.9159 9.22393 20.5701 8.02051 19.8785C6.81709 19.1869 5.86895 18.1776 5.17607 16.8505C4.48319 15.5234 4.13675 13.9159 4.13675 12.028C4.13675 10.0841 4.49231 8.45794 5.20342 7.14953C5.91453 5.82243 6.86268 4.82243 8.04786 4.14953C9.25128 3.47664 10.5915 3.14019 12.0684 3.14019C13.5635 3.14019 14.9037 3.48598 16.0889 4.17757C17.2923 4.86916 18.2405 5.8785 18.9333 7.20561C19.6444 8.53271 20 10.1402 20 12.028ZM17.7573 12.028C17.7573 9.85981 17.2376 8.15888 16.1983 6.92523C15.159 5.69159 13.7823 5.07477 12.0684 5.07477C10.3727 5.07477 9.00513 5.68224 7.96581 6.8972C6.9265 8.09346 6.40684 9.80374 6.40684 12.028C6.40684 14.1776 6.91738 15.8785 7.93846 17.1308C8.97778 18.3645 10.3544 18.9813 12.0684 18.9813C13.8006 18.9813 15.1772 18.3832 16.1983 17.1869C17.2376 15.972 17.7573 14.2523 17.7573 12.028Z" fill="currentColor"/>
</svg>
