<?xml version="1.0" encoding="UTF-8" standalone="no"?>
<svg
   width="24"
   height="24"
   viewBox="0 0 24 24"
   version="1.1"
   id="svg113"
   sodipodi:docname="th-large.svg"
   inkscape:version="1.1.2 (0a00cf5339, 2022-02-04)"
   xmlns:inkscape="http://www.inkscape.org/namespaces/inkscape"
   xmlns:sodipodi="http://sodipodi.sourceforge.net/DTD/sodipodi-0.dtd"
   xmlns="http://www.w3.org/2000/svg"
   xmlns:svg="http://www.w3.org/2000/svg">
  <path
     fill="currentColor"
     d="m 11.473322,13.580032 v 3.160061 q 0,0.427926 -0.312714,0.74064 -0.312714,0.312715 -0.74064,0.312715 H 6.2065528 q -0.427924,0 -0.7406394,-0.312715 -0.3127145,-0.312714 -0.3127145,-0.74064 v -3.160061 q 0,-0.427926 0.3127145,-0.740638 0.3127154,-0.312714 0.7406394,-0.312714 h 4.2134152 q 0.427926,0 0.74064,0.312714 0.312714,0.312712 0.312714,0.740638 z m 0,-6.3201245 V 10.41997 q 0,0.427924 -0.312714,0.740641 -0.312714,0.312713 -0.74064,0.312713 H 6.2065528 q -0.427924,0 -0.7406394,-0.312713 Q 5.1531989,10.847894 5.1531989,10.41997 V 7.2599075 q 0,-0.4279258 0.3127145,-0.7406384 0.3127154,-0.3127173 0.7406394,-0.3127173 h 4.2134152 q 0.427926,0 0.74064,0.3127173 0.312714,0.3127126 0.312714,0.7406384 z m 7.373479,6.3201245 v 3.160061 q 0,0.427926 -0.312715,0.74064 -0.312714,0.312715 -0.740639,0.312715 h -4.213416 q -0.427925,0 -0.74064,-0.312715 -0.312714,-0.312714 -0.312714,-0.74064 v -3.160061 q 0,-0.427926 0.312714,-0.740638 0.312715,-0.312714 0.74064,-0.312714 h 4.213416 q 0.427925,0 0.740639,0.312714 0.312715,0.312712 0.312715,0.740638 z m 0,-6.3201245 V 10.41997 q 0,0.427924 -0.312715,0.740641 -0.312714,0.312713 -0.740639,0.312713 h -4.213416 q -0.427925,0 -0.74064,-0.312713 -0.312714,-0.312717 -0.312714,-0.740641 V 7.2599075 q 0,-0.4279258 0.312714,-0.7406384 0.312715,-0.3127173 0.74064,-0.3127173 h 4.213416 q 0.427925,0 0.740639,0.3127173 0.312715,0.3127126 0.312715,0.7406384 z"
  />
</svg>
