<?xml version="1.0" encoding="UTF-8" standalone="no"?>
<svg
   width="24"
   height="24"
   viewBox="0 0 24 24"
   version="1.1"
   id="svg201"
   sodipodi:docname="th-list.svg"
   inkscape:version="1.1.2 (0a00cf5339, 2022-02-04)"
   xmlns:inkscape="http://www.inkscape.org/namespaces/inkscape"
   xmlns:sodipodi="http://sodipodi.sourceforge.net/DTD/sodipodi-0.dtd"
   xmlns="http://www.w3.org/2000/svg"
   xmlns:svg="http://www.w3.org/2000/svg">
  <path
     fill="currentColor"
     d="m 8.6806611,15.59595 v 1.65967 q 0,0.345764 -0.2420353,0.587799 -0.2420351,0.242036 -0.5877996,0.242036 H 5.0847103 q -0.3457644,0 -0.5877996,-0.242036 Q 4.2548756,17.601384 4.2548756,17.25562 v -1.65967 q 0,-0.345764 0.2420351,-0.587799 0.2420352,-0.242036 0.5877996,-0.242036 h 2.7661159 q 0.3457646,0 0.5877996,0.242036 0.2420353,0.242035 0.2420353,0.587799 z m 0,-4.425785 v 1.659669 q 0,0.345764 -0.2420353,0.5878 -0.2420351,0.242035 -0.5877996,0.242035 H 5.0847103 q -0.3457644,0 -0.5877996,-0.242035 -0.2420351,-0.242036 -0.2420351,-0.5878 v -1.659669 q 0,-0.345764 0.2420351,-0.5878 0.2420352,-0.242035 0.5877996,-0.242035 h 2.7661159 q 0.3457646,0 0.5877996,0.242035 0.2420353,0.242036 0.2420353,0.5878 z M 19.745124,15.59595 v 1.65967 q 0,0.345764 -0.242035,0.587799 -0.242035,0.242036 -0.587799,0.242036 h -8.298348 q -0.345764,0 -0.5878,-0.242036 Q 9.7871078,17.601384 9.7871078,17.25562 v -1.65967 q 0,-0.345764 0.2420342,-0.587799 0.242036,-0.242036 0.5878,-0.242036 h 8.298348 q 0.345764,0 0.587799,0.242036 0.242035,0.242035 0.242035,0.587799 z M 8.6806611,6.7443796 v 1.659669 q 0,0.3457643 -0.2420353,0.5878003 -0.242035,0.2420347 -0.5877996,0.2420347 H 5.0847103 q -0.3457644,0 -0.5877996,-0.2420347 Q 4.2548756,8.7498129 4.2548756,8.4040486 v -1.659669 q 0,-0.3457645 0.2420351,-0.5877996 0.2420352,-0.2420352 0.5877996,-0.2420352 h 2.7661159 q 0.3457646,0 0.5877996,0.2420352 0.2420353,0.2420351 0.2420353,0.5877996 z M 19.745124,11.170165 v 1.659669 q 0,0.345764 -0.242035,0.5878 -0.242035,0.242035 -0.587799,0.242035 h -8.298348 q -0.345764,0 -0.5878,-0.242035 -0.2420342,-0.242036 -0.2420342,-0.5878 v -1.659669 q 0,-0.345764 0.2420342,-0.5878 0.242036,-0.242035 0.5878,-0.242035 h 8.298348 q 0.345764,0 0.587799,0.242035 0.242035,0.242036 0.242035,0.5878 z m 0,-4.4257854 v 1.659669 q 0,0.3457643 -0.242035,0.5878003 -0.242035,0.2420347 -0.587799,0.2420347 h -8.298348 q -0.345764,0 -0.5878,-0.2420347 Q 9.7871079,8.7498129 9.7871079,8.4040486 v -1.659669 q 0,-0.3457645 0.2420341,-0.5877996 0.242036,-0.2420352 0.5878,-0.2420352 h 8.298348 q 0.345764,0 0.587799,0.2420352 0.242035,0.2420351 0.242035,0.5877996 z" />
</svg>
